<?xml version="1.0" encoding="UTF-8" standalone="no"?>
<!DOCTYPE svg PUBLIC "-//W3C//DTD SVG 1.1//EN"
 "http://www.w3.org/Graphics/SVG/1.1/DTD/svg11.dtd">
<!-- Generated by graphviz version 2.48.0 (20210717.1556)
 -->
<!-- Title: dependency&#45;cruiser output Pages: 1 -->
<svg width="511pt" height="1799pt"
 viewBox="0.00 0.00 511.00 1798.63" xmlns="http://www.w3.org/2000/svg" xmlns:xlink="http://www.w3.org/1999/xlink">
<g id="graph0" class="graph" transform="scale(1 1) rotate(0) translate(4 1794.63)">
<title>dependency&#45;cruiser output</title>
<polygon fill="white" stroke="transparent" points="-4,4 -4,-1794.63 507,-1794.63 507,4 -4,4"/>
<g id="clust1" class="cluster">
<title>cluster_..</title>
<path fill="#ffffff" stroke="black" stroke-width="2" d="M20,-208.63C20,-208.63 491,-208.63 491,-208.63 497,-208.63 503,-214.63 503,-220.63 503,-220.63 503,-1770.63 503,-1770.63 503,-1776.63 497,-1782.63 491,-1782.63 491,-1782.63 20,-1782.63 20,-1782.63 14,-1782.63 8,-1776.63 8,-1770.63 8,-1770.63 8,-220.63 8,-220.63 8,-214.63 14,-208.63 20,-208.63"/>
<text text-anchor="middle" x="255.5" y="-1771.43" font-family="Helvetica,sans-Serif" font-weight="bold" font-size="9.00">..</text>
</g>
<g id="clust2" class="cluster">
<title>cluster_../aggregator</title>
<path fill="#ffffff" stroke="black" stroke-width="2" d="M28.5,-216.63C28.5,-216.63 107.5,-216.63 107.5,-216.63 113.5,-216.63 119.5,-222.63 119.5,-228.63 119.5,-228.63 119.5,-410.63 119.5,-410.63 119.5,-416.63 113.5,-422.63 107.5,-422.63 107.5,-422.63 28.5,-422.63 28.5,-422.63 22.5,-422.63 16.5,-416.63 16.5,-410.63 16.5,-410.63 16.5,-228.63 16.5,-228.63 16.5,-222.63 22.5,-216.63 28.5,-216.63"/>
<text text-anchor="middle" x="68" y="-411.43" font-family="Helvetica,sans-Serif" font-weight="bold" font-size="9.00">aggregator</text>
</g>
<g id="clust3" class="cluster">
<title>cluster_../aggregator/src</title>
<path fill="#ffffff" stroke="black" stroke-width="2" d="M36.5,-224.63C36.5,-224.63 99.5,-224.63 99.5,-224.63 105.5,-224.63 111.5,-230.63 111.5,-236.63 111.5,-236.63 111.5,-384.63 111.5,-384.63 111.5,-390.63 105.5,-396.63 99.5,-396.63 99.5,-396.63 36.5,-396.63 36.5,-396.63 30.5,-396.63 24.5,-390.63 24.5,-384.63 24.5,-384.63 24.5,-236.63 24.5,-236.63 24.5,-230.63 30.5,-224.63 36.5,-224.63"/>
<text text-anchor="middle" x="68" y="-385.43" font-family="Helvetica,sans-Serif" font-weight="bold" font-size="9.00">src</text>
</g>
<g id="clust4" class="cluster">
<title>cluster_../aggregator/src/services</title>
<path fill="#ffffff" stroke="black" stroke-width="2" d="M44.5,-232.63C44.5,-232.63 91.5,-232.63 91.5,-232.63 97.5,-232.63 103.5,-238.63 103.5,-244.63 103.5,-244.63 103.5,-332.63 103.5,-332.63 103.5,-338.63 97.5,-344.63 91.5,-344.63 91.5,-344.63 44.5,-344.63 44.5,-344.63 38.5,-344.63 32.5,-338.63 32.5,-332.63 32.5,-332.63 32.5,-244.63 32.5,-244.63 32.5,-238.63 38.5,-232.63 44.5,-232.63"/>
<text text-anchor="middle" x="68" y="-333.43" font-family="Helvetica,sans-Serif" font-weight="bold" font-size="9.00">services</text>
</g>
<g id="clust5" class="cluster">
<title>cluster_../cart</title>
<path fill="#ffffff" stroke="black" stroke-width="2" d="M37,-1084.63C37,-1084.63 483,-1084.63 483,-1084.63 489,-1084.63 495,-1090.63 495,-1096.63 495,-1096.63 495,-1744.63 495,-1744.63 495,-1750.63 489,-1756.63 483,-1756.63 483,-1756.63 37,-1756.63 37,-1756.63 31,-1756.63 25,-1750.63 25,-1744.63 25,-1744.63 25,-1096.63 25,-1096.63 25,-1090.63 31,-1084.63 37,-1084.63"/>
<text text-anchor="middle" x="260" y="-1745.43" font-family="Helvetica,sans-Serif" font-weight="bold" font-size="9.00">cart</text>
</g>
<g id="clust6" class="cluster">
<title>cluster_../cart/dist</title>
<path fill="#ffffff" stroke="black" stroke-width="2" d="M45,-1648.63C45,-1648.63 91,-1648.63 91,-1648.63 97,-1648.63 103,-1654.63 103,-1660.63 103,-1660.63 103,-1718.63 103,-1718.63 103,-1724.63 97,-1730.63 91,-1730.63 91,-1730.63 45,-1730.63 45,-1730.63 39,-1730.63 33,-1724.63 33,-1718.63 33,-1718.63 33,-1660.63 33,-1660.63 33,-1654.63 39,-1648.63 45,-1648.63"/>
<text text-anchor="middle" x="68" y="-1719.43" font-family="Helvetica,sans-Serif" font-weight="bold" font-size="9.00">dist</text>
</g>
<g id="clust7" class="cluster">
<title>cluster_../cart/node_modules</title>
<path fill="#ffffff" stroke="black" stroke-width="2" d="M355,-1092.63C355,-1092.63 475,-1092.63 475,-1092.63 481,-1092.63 487,-1098.63 487,-1104.63 487,-1104.63 487,-1534.63 487,-1534.63 487,-1540.63 481,-1546.63 475,-1546.63 475,-1546.63 355,-1546.63 355,-1546.63 349,-1546.63 343,-1540.63 343,-1534.63 343,-1534.63 343,-1104.63 343,-1104.63 343,-1098.63 349,-1092.63 355,-1092.63"/>
<text text-anchor="middle" x="415" y="-1535.43" font-family="Helvetica,sans-Serif" font-weight="bold" font-size="9.00">node_modules</text>
</g>
<g id="clust8" class="cluster">
<title>cluster_../cart/node_modules/express</title>
<path fill="#ffffff" stroke="black" stroke-width="2" d="M392,-1194.63C392,-1194.63 438,-1194.63 438,-1194.63 444,-1194.63 450,-1200.63 450,-1206.63 450,-1206.63 450,-1234.63 450,-1234.63 450,-1240.63 444,-1246.63 438,-1246.63 438,-1246.63 392,-1246.63 392,-1246.63 386,-1246.63 380,-1240.63 380,-1234.63 380,-1234.63 380,-1206.63 380,-1206.63 380,-1200.63 386,-1194.63 392,-1194.63"/>
<text text-anchor="middle" x="415" y="-1235.43" font-family="Helvetica,sans-Serif" font-weight="bold" font-size="9.00">express</text>
</g>
<g id="clust9" class="cluster">
<title>cluster_../cart/node_modules/hypernova&#45;react</title>
<path fill="#ffffff" stroke="black" stroke-width="2" d="M384,-1254.63C384,-1254.63 447,-1254.63 447,-1254.63 453,-1254.63 459,-1260.63 459,-1266.63 459,-1266.63 459,-1328.63 459,-1328.63 459,-1334.63 453,-1340.63 447,-1340.63 447,-1340.63 384,-1340.63 384,-1340.63 378,-1340.63 372,-1334.63 372,-1328.63 372,-1328.63 372,-1266.63 372,-1266.63 372,-1260.63 378,-1254.63 384,-1254.63"/>
<text text-anchor="middle" x="415.5" y="-1329.43" font-family="Helvetica,sans-Serif" font-weight="bold" font-size="9.00">hypernova&#45;react</text>
</g>
<g id="clust10" class="cluster">
<title>cluster_../cart/node_modules/hypernova&#45;react/lib</title>
<path fill="#ffffff" stroke="black" stroke-width="2" d="M392,-1262.63C392,-1262.63 438,-1262.63 438,-1262.63 444,-1262.63 450,-1268.63 450,-1274.63 450,-1274.63 450,-1302.63 450,-1302.63 450,-1308.63 444,-1314.63 438,-1314.63 438,-1314.63 392,-1314.63 392,-1314.63 386,-1314.63 380,-1308.63 380,-1302.63 380,-1302.63 380,-1274.63 380,-1274.63 380,-1268.63 386,-1262.63 392,-1262.63"/>
<text text-anchor="middle" x="415" y="-1303.43" font-family="Helvetica,sans-Serif" font-weight="bold" font-size="9.00">lib</text>
</g>
<g id="clust11" class="cluster">
<title>cluster_../cart/node_modules/hypernova</title>
<path fill="#ffffff" stroke="black" stroke-width="2" d="M392,-1348.63C392,-1348.63 438,-1348.63 438,-1348.63 444,-1348.63 450,-1354.63 450,-1360.63 450,-1360.63 450,-1388.63 450,-1388.63 450,-1394.63 444,-1400.63 438,-1400.63 438,-1400.63 392,-1400.63 392,-1400.63 386,-1400.63 380,-1394.63 380,-1388.63 380,-1388.63 380,-1360.63 380,-1360.63 380,-1354.63 386,-1348.63 392,-1348.63"/>
<text text-anchor="middle" x="415" y="-1389.43" font-family="Helvetica,sans-Serif" font-weight="bold" font-size="9.00">hypernova</text>
</g>
<g id="clust12" class="cluster">
<title>cluster_../cart/node_modules/nodemon&#45;webpack&#45;plugin</title>
<path fill="#ffffff" stroke="black" stroke-width="2" d="M363,-1100.63C363,-1100.63 467,-1100.63 467,-1100.63 473,-1100.63 479,-1106.63 479,-1112.63 479,-1112.63 479,-1174.63 479,-1174.63 479,-1180.63 473,-1186.63 467,-1186.63 467,-1186.63 363,-1186.63 363,-1186.63 357,-1186.63 351,-1180.63 351,-1174.63 351,-1174.63 351,-1112.63 351,-1112.63 351,-1106.63 357,-1100.63 363,-1100.63"/>
<text text-anchor="middle" x="415" y="-1175.43" font-family="Helvetica,sans-Serif" font-weight="bold" font-size="9.00">nodemon&#45;webpack&#45;plugin</text>
</g>
<g id="clust13" class="cluster">
<title>cluster_../cart/node_modules/nodemon&#45;webpack&#45;plugin/dist</title>
<path fill="#ffffff" stroke="black" stroke-width="2" d="M392,-1108.63C392,-1108.63 438,-1108.63 438,-1108.63 444,-1108.63 450,-1114.63 450,-1120.63 450,-1120.63 450,-1148.63 450,-1148.63 450,-1154.63 444,-1160.63 438,-1160.63 438,-1160.63 392,-1160.63 392,-1160.63 386,-1160.63 380,-1154.63 380,-1148.63 380,-1148.63 380,-1120.63 380,-1120.63 380,-1114.63 386,-1108.63 392,-1108.63"/>
<text text-anchor="middle" x="415" y="-1149.43" font-family="Helvetica,sans-Serif" font-weight="bold" font-size="9.00">dist</text>
</g>
<g id="clust14" class="cluster">
<title>cluster_../cart/node_modules/prop&#45;types</title>
<path fill="#ffffff" stroke="black" stroke-width="2" d="M392,-1468.63C392,-1468.63 438,-1468.63 438,-1468.63 444,-1468.63 450,-1474.63 450,-1480.63 450,-1480.63 450,-1508.63 450,-1508.63 450,-1514.63 444,-1520.63 438,-1520.63 438,-1520.63 392,-1520.63 392,-1520.63 386,-1520.63 380,-1514.63 380,-1508.63 380,-1508.63 380,-1480.63 380,-1480.63 380,-1474.63 386,-1468.63 392,-1468.63"/>
<text text-anchor="middle" x="415" y="-1509.43" font-family="Helvetica,sans-Serif" font-weight="bold" font-size="9.00">prop&#45;types</text>
</g>
<g id="clust15" class="cluster">
<title>cluster_../cart/node_modules/react</title>
<path fill="#ffffff" stroke="black" stroke-width="2" d="M392,-1408.63C392,-1408.63 438,-1408.63 438,-1408.63 444,-1408.63 450,-1414.63 450,-1420.63 450,-1420.63 450,-1448.63 450,-1448.63 450,-1454.63 444,-1460.63 438,-1460.63 438,-1460.63 392,-1460.63 392,-1460.63 386,-1460.63 380,-1454.63 380,-1448.63 380,-1448.63 380,-1420.63 380,-1420.63 380,-1414.63 386,-1408.63 392,-1408.63"/>
<text text-anchor="middle" x="415" y="-1449.43" font-family="Helvetica,sans-Serif" font-weight="bold" font-size="9.00">react</text>
</g>
<g id="clust16" class="cluster">
<title>cluster_../cart/src</title>
<path fill="#ffffff" stroke="black" stroke-width="2" d="M45,-1554.63C45,-1554.63 449,-1554.63 449,-1554.63 455,-1554.63 461,-1560.63 461,-1566.63 461,-1566.63 461,-1628.63 461,-1628.63 461,-1634.63 455,-1640.63 449,-1640.63 449,-1640.63 45,-1640.63 45,-1640.63 39,-1640.63 33,-1634.63 33,-1628.63 33,-1628.63 33,-1566.63 33,-1566.63 33,-1560.63 39,-1554.63 45,-1554.63"/>
<text text-anchor="middle" x="247" y="-1629.43" font-family="Helvetica,sans-Serif" font-weight="bold" font-size="9.00">src</text>
</g>
<g id="clust17" class="cluster">
<title>cluster_../cart/src/components</title>
<path fill="#ffffff" stroke="black" stroke-width="2" d="M190,-1562.63C190,-1562.63 441,-1562.63 441,-1562.63 447,-1562.63 453,-1568.63 453,-1574.63 453,-1574.63 453,-1602.63 453,-1602.63 453,-1608.63 447,-1614.63 441,-1614.63 441,-1614.63 190,-1614.63 190,-1614.63 184,-1614.63 178,-1608.63 178,-1602.63 178,-1602.63 178,-1574.63 178,-1574.63 178,-1568.63 184,-1562.63 190,-1562.63"/>
<text text-anchor="middle" x="315.5" y="-1603.43" font-family="Helvetica,sans-Serif" font-weight="bold" font-size="9.00">components</text>
</g>
<g id="clust18" class="cluster">
<title>cluster_../product&#45;list</title>
<path fill="#ffffff" stroke="black" stroke-width="2" d="M28,-430.63C28,-430.63 283.5,-430.63 283.5,-430.63 289.5,-430.63 295.5,-436.63 295.5,-442.63 295.5,-442.63 295.5,-1064.63 295.5,-1064.63 295.5,-1070.63 289.5,-1076.63 283.5,-1076.63 283.5,-1076.63 28,-1076.63 28,-1076.63 22,-1076.63 16,-1070.63 16,-1064.63 16,-1064.63 16,-442.63 16,-442.63 16,-436.63 22,-430.63 28,-430.63"/>
<text text-anchor="middle" x="155.75" y="-1065.43" font-family="Helvetica,sans-Serif" font-weight="bold" font-size="9.00">product&#45;list</text>
</g>
<g id="clust19" class="cluster">
<title>cluster_../product&#45;list/dist</title>
<path fill="#ffffff" stroke="black" stroke-width="2" d="M45,-968.63C45,-968.63 91,-968.63 91,-968.63 97,-968.63 103,-974.63 103,-980.63 103,-980.63 103,-1038.63 103,-1038.63 103,-1044.63 97,-1050.63 91,-1050.63 91,-1050.63 45,-1050.63 45,-1050.63 39,-1050.63 33,-1044.63 33,-1038.63 33,-1038.63 33,-980.63 33,-980.63 33,-974.63 39,-968.63 45,-968.63"/>
<text text-anchor="middle" x="68" y="-1039.43" font-family="Helvetica,sans-Serif" font-weight="bold" font-size="9.00">dist</text>
</g>
<g id="clust20" class="cluster">
<title>cluster_../product&#45;list/node_modules</title>
<path fill="#ffffff" stroke="black" stroke-width="2" d="M155.5,-438.63C155.5,-438.63 275.5,-438.63 275.5,-438.63 281.5,-438.63 287.5,-444.63 287.5,-450.63 287.5,-450.63 287.5,-854.63 287.5,-854.63 287.5,-860.63 281.5,-866.63 275.5,-866.63 275.5,-866.63 155.5,-866.63 155.5,-866.63 149.5,-866.63 143.5,-860.63 143.5,-854.63 143.5,-854.63 143.5,-450.63 143.5,-450.63 143.5,-444.63 149.5,-438.63 155.5,-438.63"/>
<text text-anchor="middle" x="215.5" y="-855.43" font-family="Helvetica,sans-Serif" font-weight="bold" font-size="9.00">node_modules</text>
</g>
<g id="clust21" class="cluster">
<title>cluster_../product&#45;list/node_modules/express</title>
<path fill="#ffffff" stroke="black" stroke-width="2" d="M192.5,-728.63C192.5,-728.63 238.5,-728.63 238.5,-728.63 244.5,-728.63 250.5,-734.63 250.5,-740.63 250.5,-740.63 250.5,-768.63 250.5,-768.63 250.5,-774.63 244.5,-780.63 238.5,-780.63 238.5,-780.63 192.5,-780.63 192.5,-780.63 186.5,-780.63 180.5,-774.63 180.5,-768.63 180.5,-768.63 180.5,-740.63 180.5,-740.63 180.5,-734.63 186.5,-728.63 192.5,-728.63"/>
<text text-anchor="middle" x="215.5" y="-769.43" font-family="Helvetica,sans-Serif" font-weight="bold" font-size="9.00">express</text>
</g>
<g id="clust22" class="cluster">
<title>cluster_../product&#45;list/node_modules/hypernova&#45;vue</title>
<path fill="#ffffff" stroke="black" stroke-width="2" d="M184.5,-634.63C184.5,-634.63 246.5,-634.63 246.5,-634.63 252.5,-634.63 258.5,-640.63 258.5,-646.63 258.5,-646.63 258.5,-708.63 258.5,-708.63 258.5,-714.63 252.5,-720.63 246.5,-720.63 246.5,-720.63 184.5,-720.63 184.5,-720.63 178.5,-720.63 172.5,-714.63 172.5,-708.63 172.5,-708.63 172.5,-646.63 172.5,-646.63 172.5,-640.63 178.5,-634.63 184.5,-634.63"/>
<text text-anchor="middle" x="215.5" y="-709.43" font-family="Helvetica,sans-Serif" font-weight="bold" font-size="9.00">hypernova&#45;vue</text>
</g>
<g id="clust23" class="cluster">
<title>cluster_../product&#45;list/node_modules/hypernova&#45;vue/lib</title>
<path fill="#ffffff" stroke="black" stroke-width="2" d="M192.5,-642.63C192.5,-642.63 238.5,-642.63 238.5,-642.63 244.5,-642.63 250.5,-648.63 250.5,-654.63 250.5,-654.63 250.5,-682.63 250.5,-682.63 250.5,-688.63 244.5,-694.63 238.5,-694.63 238.5,-694.63 192.5,-694.63 192.5,-694.63 186.5,-694.63 180.5,-688.63 180.5,-682.63 180.5,-682.63 180.5,-654.63 180.5,-654.63 180.5,-648.63 186.5,-642.63 192.5,-642.63"/>
<text text-anchor="middle" x="215.5" y="-683.43" font-family="Helvetica,sans-Serif" font-weight="bold" font-size="9.00">lib</text>
</g>
<g id="clust24" class="cluster">
<title>cluster_../product&#45;list/node_modules/hypernova</title>
<path fill="#ffffff" stroke="black" stroke-width="2" d="M192.5,-788.63C192.5,-788.63 238.5,-788.63 238.5,-788.63 244.5,-788.63 250.5,-794.63 250.5,-800.63 250.5,-800.63 250.5,-828.63 250.5,-828.63 250.5,-834.63 244.5,-840.63 238.5,-840.63 238.5,-840.63 192.5,-840.63 192.5,-840.63 186.5,-840.63 180.5,-834.63 180.5,-828.63 180.5,-828.63 180.5,-800.63 180.5,-800.63 180.5,-794.63 186.5,-788.63 192.5,-788.63"/>
<text text-anchor="middle" x="215.5" y="-829.43" font-family="Helvetica,sans-Serif" font-weight="bold" font-size="9.00">hypernova</text>
</g>
<g id="clust25" class="cluster">
<title>cluster_../product&#45;list/node_modules/nodemon&#45;webpack&#45;plugin</title>
<path fill="#ffffff" stroke="black" stroke-width="2" d="M163.5,-540.63C163.5,-540.63 267.5,-540.63 267.5,-540.63 273.5,-540.63 279.5,-546.63 279.5,-552.63 279.5,-552.63 279.5,-614.63 279.5,-614.63 279.5,-620.63 273.5,-626.63 267.5,-626.63 267.5,-626.63 163.5,-626.63 163.5,-626.63 157.5,-626.63 151.5,-620.63 151.5,-614.63 151.5,-614.63 151.5,-552.63 151.5,-552.63 151.5,-546.63 157.5,-540.63 163.5,-540.63"/>
<text text-anchor="middle" x="215.5" y="-615.43" font-family="Helvetica,sans-Serif" font-weight="bold" font-size="9.00">nodemon&#45;webpack&#45;plugin</text>
</g>
<g id="clust26" class="cluster">
<title>cluster_../product&#45;list/node_modules/nodemon&#45;webpack&#45;plugin/dist</title>
<path fill="#ffffff" stroke="black" stroke-width="2" d="M192.5,-548.63C192.5,-548.63 238.5,-548.63 238.5,-548.63 244.5,-548.63 250.5,-554.63 250.5,-560.63 250.5,-560.63 250.5,-588.63 250.5,-588.63 250.5,-594.63 244.5,-600.63 238.5,-600.63 238.5,-600.63 192.5,-600.63 192.5,-600.63 186.5,-600.63 180.5,-594.63 180.5,-588.63 180.5,-588.63 180.5,-560.63 180.5,-560.63 180.5,-554.63 186.5,-548.63 192.5,-548.63"/>
<text text-anchor="middle" x="215.5" y="-589.43" font-family="Helvetica,sans-Serif" font-weight="bold" font-size="9.00">dist</text>
</g>
<g id="clust27" class="cluster">
<title>cluster_../product&#45;list/node_modules/vue&#45;loader</title>
<path fill="#ffffff" stroke="black" stroke-width="2" d="M184.5,-446.63C184.5,-446.63 246.5,-446.63 246.5,-446.63 252.5,-446.63 258.5,-452.63 258.5,-458.63 258.5,-458.63 258.5,-520.63 258.5,-520.63 258.5,-526.63 252.5,-532.63 246.5,-532.63 246.5,-532.63 184.5,-532.63 184.5,-532.63 178.5,-532.63 172.5,-526.63 172.5,-520.63 172.5,-520.63 172.5,-458.63 172.5,-458.63 172.5,-452.63 178.5,-446.63 184.5,-446.63"/>
<text text-anchor="middle" x="215.5" y="-521.43" font-family="Helvetica,sans-Serif" font-weight="bold" font-size="9.00">vue&#45;loader</text>
</g>
<g id="clust28" class="cluster">
<title>cluster_../product&#45;list/node_modules/vue&#45;loader/lib</title>
<path fill="#ffffff" stroke="black" stroke-width="2" d="M192.5,-454.63C192.5,-454.63 238.5,-454.63 238.5,-454.63 244.5,-454.63 250.5,-460.63 250.5,-466.63 250.5,-466.63 250.5,-494.63 250.5,-494.63 250.5,-500.63 244.5,-506.63 238.5,-506.63 238.5,-506.63 192.5,-506.63 192.5,-506.63 186.5,-506.63 180.5,-500.63 180.5,-494.63 180.5,-494.63 180.5,-466.63 180.5,-466.63 180.5,-460.63 186.5,-454.63 192.5,-454.63"/>
<text text-anchor="middle" x="215.5" y="-495.43" font-family="Helvetica,sans-Serif" font-weight="bold" font-size="9.00">lib</text>
</g>
<g id="clust29" class="cluster">
<title>cluster_../product&#45;list/src</title>
<path fill="#ffffff" stroke="black" stroke-width="2" d="M45,-874.63C45,-874.63 259,-874.63 259,-874.63 265,-874.63 271,-880.63 271,-886.63 271,-886.63 271,-948.63 271,-948.63 271,-954.63 265,-960.63 259,-960.63 259,-960.63 45,-960.63 45,-960.63 39,-960.63 33,-954.63 33,-948.63 33,-948.63 33,-886.63 33,-886.63 33,-880.63 39,-874.63 45,-874.63"/>
<text text-anchor="middle" x="152" y="-949.43" font-family="Helvetica,sans-Serif" font-weight="bold" font-size="9.00">src</text>
</g>
<g id="clust30" class="cluster">
<title>cluster_../product&#45;list/src/components</title>
<path fill="#ffffff" stroke="black" stroke-width="2" d="M180,-882.63C180,-882.63 251,-882.63 251,-882.63 257,-882.63 263,-888.63 263,-894.63 263,-894.63 263,-922.63 263,-922.63 263,-928.63 257,-934.63 251,-934.63 251,-934.63 180,-934.63 180,-934.63 174,-934.63 168,-928.63 168,-922.63 168,-922.63 168,-894.63 168,-894.63 168,-888.63 174,-882.63 180,-882.63"/>
<text text-anchor="middle" x="215.5" y="-923.43" font-family="Helvetica,sans-Serif" font-weight="bold" font-size="9.00">components</text>
</g>
<g id="clust31" class="cluster">
<title>cluster_node_modules</title>
<path fill="#ffffff" stroke="black" stroke-width="2" d="M384,-18.63C384,-18.63 446,-18.63 446,-18.63 452,-18.63 458,-24.63 458,-30.63 458,-30.63 458,-152.63 458,-152.63 458,-158.63 452,-164.63 446,-164.63 446,-164.63 384,-164.63 384,-164.63 378,-164.63 372,-158.63 372,-152.63 372,-152.63 372,-30.63 372,-30.63 372,-24.63 378,-18.63 384,-18.63"/>
<text text-anchor="middle" x="415" y="-153.43" font-family="Helvetica,sans-Serif" font-weight="bold" font-size="9.00">node_modules</text>
</g>
<g id="clust32" class="cluster">
<title>cluster_node_modules/axios</title>
<path fill="#ffffff" stroke="black" stroke-width="2" d="M392,-26.63C392,-26.63 438,-26.63 438,-26.63 444,-26.63 450,-32.63 450,-38.63 450,-38.63 450,-66.63 450,-66.63 450,-72.63 444,-78.63 438,-78.63 438,-78.63 392,-78.63 392,-78.63 386,-78.63 380,-72.63 380,-66.63 380,-66.63 380,-38.63 380,-38.63 380,-32.63 386,-26.63 392,-26.63"/>
<text text-anchor="middle" x="415" y="-67.43" font-family="Helvetica,sans-Serif" font-weight="bold" font-size="9.00">axios</text>
</g>
<g id="clust33" class="cluster">
<title>cluster_node_modules/express</title>
<path fill="#ffffff" stroke="black" stroke-width="2" d="M392,-86.63C392,-86.63 438,-86.63 438,-86.63 444,-86.63 450,-92.63 450,-98.63 450,-98.63 450,-126.63 450,-126.63 450,-132.63 444,-138.63 438,-138.63 438,-138.63 392,-138.63 392,-138.63 386,-138.63 380,-132.63 380,-126.63 380,-126.63 380,-98.63 380,-98.63 380,-92.63 386,-86.63 392,-86.63"/>
<text text-anchor="middle" x="415" y="-127.43" font-family="Helvetica,sans-Serif" font-weight="bold" font-size="9.00">express</text>
</g>
<g id="clust34" class="cluster">
<title>cluster_src</title>
<path fill="#ffffff" stroke="black" stroke-width="2" d="M184,-84.63C184,-84.63 247,-84.63 247,-84.63 253,-84.63 259,-90.63 259,-96.63 259,-96.63 259,-188.63 259,-188.63 259,-194.63 253,-200.63 247,-200.63 247,-200.63 184,-200.63 184,-200.63 178,-200.63 172,-194.63 172,-188.63 172,-188.63 172,-96.63 172,-96.63 172,-90.63 178,-84.63 184,-84.63"/>
<text text-anchor="middle" x="215.5" y="-189.43" font-family="Helvetica,sans-Serif" font-weight="bold" font-size="9.00">src</text>
</g>
<g id="clust35" class="cluster">
<title>cluster_src/services</title>
<path fill="#ffffff" stroke="black" stroke-width="2" d="M192,-92.63C192,-92.63 239,-92.63 239,-92.63 245,-92.63 251,-98.63 251,-104.63 251,-104.63 251,-162.63 251,-162.63 251,-168.63 245,-174.63 239,-174.63 239,-174.63 192,-174.63 192,-174.63 186,-174.63 180,-168.63 180,-162.63 180,-162.63 180,-104.63 180,-104.63 180,-98.63 186,-92.63 192,-92.63"/>
<text text-anchor="middle" x="215.5" y="-163.43" font-family="Helvetica,sans-Serif" font-weight="bold" font-size="9.00">services</text>
</g>
<!-- ../aggregator/src/index.js -->
<g id="node1" class="node">
<title>../aggregator/src/index.js</title>
<g id="a_node1"><a xlink:href="../aggregator/src/index.js" xlink:title="index.js">
<path fill="#ffffcc" stroke="black" d="M89,-370.63C89,-370.63 47,-370.63 47,-370.63 44,-370.63 41,-367.63 41,-364.63 41,-364.63 41,-358.63 41,-358.63 41,-355.63 44,-352.63 47,-352.63 47,-352.63 89,-352.63 89,-352.63 92,-352.63 95,-355.63 95,-358.63 95,-358.63 95,-364.63 95,-364.63 95,-367.63 92,-370.63 89,-370.63"/>
<text text-anchor="middle" x="68" y="-359.43" font-family="Helvetica,sans-Serif" font-size="9.00">index.js</text>
</a>
</g>
</g>
<!-- src/services/content.js -->
<g id="node2" class="node">
<title>src/services/content.js</title>
<g id="a_node2"><a xlink:href="src/services/content.js" xlink:title="content.js">
<path fill="#ffffcc" stroke="black" d="M237,-148.63C237,-148.63 194,-148.63 194,-148.63 191,-148.63 188,-145.63 188,-142.63 188,-142.63 188,-136.63 188,-136.63 188,-133.63 191,-130.63 194,-130.63 194,-130.63 237,-130.63 237,-130.63 240,-130.63 243,-133.63 243,-136.63 243,-136.63 243,-142.63 243,-142.63 243,-145.63 240,-148.63 237,-148.63"/>
<text text-anchor="middle" x="215.5" y="-137.43" font-family="Helvetica,sans-Serif" font-size="9.00">content.js</text>
</a>
</g>
</g>
<!-- ../aggregator/src/index.js&#45;&gt;src/services/content.js -->
<g id="edge1" class="edge">
<title>../aggregator/src/index.js&#45;&gt;src/services/content.js</title>
<path fill="none" stroke="#000000" stroke-width="2" stroke-opacity="0.200000" d="M95.21,-358.83C103.73,-356.82 112.72,-353.42 119.5,-347.63 181.45,-294.77 205.12,-193.07 212.08,-154.74"/>
<polygon fill="#000000" fill-opacity="0.200000" stroke="#000000" stroke-width="2" stroke-opacity="0.200000" points="214.16,-155.02 213.12,-148.75 210.02,-154.3 214.16,-155.02"/>
</g>
<!-- src/services/layout.js -->
<g id="node3" class="node">
<title>src/services/layout.js</title>
<g id="a_node3"><a xlink:href="src/services/layout.js" xlink:title="layout.js">
<path fill="#ffffcc" stroke="black" d="M236.5,-118.63C236.5,-118.63 194.5,-118.63 194.5,-118.63 191.5,-118.63 188.5,-115.63 188.5,-112.63 188.5,-112.63 188.5,-106.63 188.5,-106.63 188.5,-103.63 191.5,-100.63 194.5,-100.63 194.5,-100.63 236.5,-100.63 236.5,-100.63 239.5,-100.63 242.5,-103.63 242.5,-106.63 242.5,-106.63 242.5,-112.63 242.5,-112.63 242.5,-115.63 239.5,-118.63 236.5,-118.63"/>
<text text-anchor="middle" x="215.5" y="-107.43" font-family="Helvetica,sans-Serif" font-size="9.00">layout.js</text>
</a>
</g>
</g>
<!-- ../aggregator/src/index.js&#45;&gt;src/services/layout.js -->
<g id="edge2" class="edge">
<title>../aggregator/src/index.js&#45;&gt;src/services/layout.js</title>
<path fill="none" stroke="#000000" stroke-width="2" stroke-opacity="0.200000" d="M95.06,-360.26C104.08,-358.43 113.44,-354.77 119.5,-347.63 184.01,-271.63 76.66,-198.58 143.5,-124.63 153.1,-114.01 168.16,-109.86 181.94,-108.53"/>
<polygon fill="#000000" fill-opacity="0.200000" stroke="#000000" stroke-width="2" stroke-opacity="0.200000" points="182.32,-110.61 188.16,-108.11 182.03,-106.42 182.32,-110.61"/>
</g>
<!-- node_modules/express/index.js -->
<g id="node4" class="node">
<title>node_modules/express/index.js</title>
<g id="a_node4"><a xlink:href="node_modules/express/index.js" xlink:title="index.js">
<polygon fill="#c40b0a" fill-opacity="0.101961" stroke="black" points="442,-112.63 440.5,-114.63 430,-114.63 428.5,-112.63 388,-112.63 388,-94.63 442,-94.63 442,-112.63"/>
<text text-anchor="middle" x="415" y="-101.43" font-family="Helvetica,sans-Serif" font-size="9.00" fill="#c40b0a">index.js</text>
</a>
</g>
</g>
<!-- ../aggregator/src/index.js&#45;&gt;node_modules/express/index.js -->
<g id="edge3" class="edge">
<title>../aggregator/src/index.js&#45;&gt;node_modules/express/index.js</title>
<path fill="none" stroke="#000000" stroke-opacity="0.200000" d="M95.11,-360.31C104.14,-358.49 113.49,-354.82 119.5,-347.63 156.44,-303.46 100.94,-128.41 143.5,-89.63 177.51,-58.64 317.58,-83.21 381.69,-96.5"/>
<polygon fill="#000000" fill-opacity="0.200000" stroke="#000000" stroke-opacity="0.200000" points="381.35,-98.58 387.66,-97.75 382.21,-94.47 381.35,-98.58"/>
</g>
<!-- node_modules/axios/index.js -->
<g id="node6" class="node">
<title>node_modules/axios/index.js</title>
<g id="a_node6"><a xlink:href="node_modules/axios/index.js" xlink:title="index.js">
<polygon fill="#c40b0a" fill-opacity="0.101961" stroke="black" points="442,-52.63 440.5,-54.63 430,-54.63 428.5,-52.63 388,-52.63 388,-34.63 442,-34.63 442,-52.63"/>
<text text-anchor="middle" x="415" y="-41.43" font-family="Helvetica,sans-Serif" font-size="9.00" fill="#c40b0a">index.js</text>
</a>
</g>
</g>
<!-- src/services/content.js&#45;&gt;node_modules/axios/index.js -->
<g id="edge24" class="edge">
<title>src/services/content.js&#45;&gt;node_modules/axios/index.js</title>
<path fill="none" stroke="#000000" stroke-opacity="0.200000" d="M243.2,-138.04C259.04,-136.26 279.16,-132.52 295.5,-124.63 320.61,-112.5 320.18,-99.66 343,-83.63 358.02,-73.07 376.06,-62.94 390.19,-55.51"/>
<polygon fill="#000000" fill-opacity="0.200000" stroke="#000000" stroke-opacity="0.200000" points="391.24,-57.33 395.6,-52.7 389.31,-53.61 391.24,-57.33"/>
</g>
<!-- src/services/layout.js&#45;&gt;node_modules/axios/index.js -->
<g id="edge25" class="edge">
<title>src/services/layout.js&#45;&gt;node_modules/axios/index.js</title>
<path fill="none" stroke="#000000" stroke-opacity="0.200000" d="M242.73,-100.86C278.68,-88.85 343.23,-67.28 381.99,-54.33"/>
<polygon fill="#000000" fill-opacity="0.200000" stroke="#000000" stroke-opacity="0.200000" points="382.95,-56.22 387.98,-52.32 381.62,-52.23 382.95,-56.22"/>
</g>
<!-- ../aggregator/src/services/content.js -->
<g id="node5" class="node">
<title>../aggregator/src/services/content.js</title>
<g id="a_node5"><a xlink:href="../aggregator/src/services/content.js" xlink:title="content.js">
<path fill="#ffffcc" stroke="black" d="M89.5,-288.63C89.5,-288.63 46.5,-288.63 46.5,-288.63 43.5,-288.63 40.5,-285.63 40.5,-282.63 40.5,-282.63 40.5,-276.63 40.5,-276.63 40.5,-273.63 43.5,-270.63 46.5,-270.63 46.5,-270.63 89.5,-270.63 89.5,-270.63 92.5,-270.63 95.5,-273.63 95.5,-276.63 95.5,-276.63 95.5,-282.63 95.5,-282.63 95.5,-285.63 92.5,-288.63 89.5,-288.63"/>
<text text-anchor="middle" x="68" y="-277.43" font-family="Helvetica,sans-Serif" font-size="9.00">content.js</text>
</a>
</g>
</g>
<!-- ../aggregator/src/services/content.js&#45;&gt;node_modules/axios/index.js -->
<g id="edge4" class="edge">
<title>../aggregator/src/services/content.js&#45;&gt;node_modules/axios/index.js</title>
<path fill="none" stroke="#000000" stroke-opacity="0.200000" d="M95.63,-277.61C104.5,-275.57 113.6,-271.74 119.5,-264.63 152.46,-224.92 105.17,-68.18 143.5,-33.63 212.06,28.18 334.67,-10.75 388.01,-32.22"/>
<polygon fill="#000000" fill-opacity="0.200000" stroke="#000000" stroke-opacity="0.200000" points="387.52,-34.28 393.87,-34.61 389.11,-30.39 387.52,-34.28"/>
</g>
<!-- ../aggregator/src/services/layout.js -->
<g id="node7" class="node">
<title>../aggregator/src/services/layout.js</title>
<g id="a_node7"><a xlink:href="../aggregator/src/services/layout.js" xlink:title="layout.js">
<path fill="#ffffcc" stroke="black" d="M89,-318.63C89,-318.63 47,-318.63 47,-318.63 44,-318.63 41,-315.63 41,-312.63 41,-312.63 41,-306.63 41,-306.63 41,-303.63 44,-300.63 47,-300.63 47,-300.63 89,-300.63 89,-300.63 92,-300.63 95,-303.63 95,-306.63 95,-306.63 95,-312.63 95,-312.63 95,-315.63 92,-318.63 89,-318.63"/>
<text text-anchor="middle" x="68" y="-307.43" font-family="Helvetica,sans-Serif" font-size="9.00">layout.js</text>
</a>
</g>
</g>
<!-- ../aggregator/src/services/layout.js&#45;&gt;node_modules/axios/index.js -->
<g id="edge5" class="edge">
<title>../aggregator/src/services/layout.js&#45;&gt;node_modules/axios/index.js</title>
<path fill="none" stroke="#000000" stroke-opacity="0.200000" d="M95.09,-307.71C104.12,-305.71 113.47,-301.87 119.5,-294.63 151.4,-256.34 108.19,-106.8 143.5,-71.63 176.25,-39.02 317.11,-39.91 381.57,-42.13"/>
<polygon fill="#000000" fill-opacity="0.200000" stroke="#000000" stroke-opacity="0.200000" points="381.86,-44.25 387.93,-42.37 382.01,-40.05 381.86,-44.25"/>
</g>
<!-- ../aggregator/src/services/todo.js -->
<g id="node8" class="node">
<title>../aggregator/src/services/todo.js</title>
<g id="a_node8"><a xlink:href="../aggregator/src/services/todo.js" xlink:title="todo.js">
<path fill="#ccffcc" stroke="black" d="M89,-258.63C89,-258.63 47,-258.63 47,-258.63 44,-258.63 41,-255.63 41,-252.63 41,-252.63 41,-246.63 41,-246.63 41,-243.63 44,-240.63 47,-240.63 47,-240.63 89,-240.63 89,-240.63 92,-240.63 95,-243.63 95,-246.63 95,-246.63 95,-252.63 95,-252.63 95,-255.63 92,-258.63 89,-258.63"/>
<text text-anchor="middle" x="68" y="-247.43" font-family="Helvetica,sans-Serif" font-size="9.00">todo.js</text>
</a>
</g>
</g>
<!-- ../cart/dist/client.js -->
<g id="node9" class="node">
<title>../cart/dist/client.js</title>
<g id="a_node9"><a xlink:href="../cart/dist/client.js" xlink:title="client.js">
<path fill="#ccffcc" stroke="black" d="M89,-1704.63C89,-1704.63 47,-1704.63 47,-1704.63 44,-1704.63 41,-1701.63 41,-1698.63 41,-1698.63 41,-1692.63 41,-1692.63 41,-1689.63 44,-1686.63 47,-1686.63 47,-1686.63 89,-1686.63 89,-1686.63 92,-1686.63 95,-1689.63 95,-1692.63 95,-1692.63 95,-1698.63 95,-1698.63 95,-1701.63 92,-1704.63 89,-1704.63"/>
<text text-anchor="middle" x="68" y="-1693.43" font-family="Helvetica,sans-Serif" font-size="9.00">client.js</text>
</a>
</g>
</g>
<!-- ../cart/dist/server.js -->
<g id="node10" class="node">
<title>../cart/dist/server.js</title>
<g id="a_node10"><a xlink:href="../cart/dist/server.js" xlink:title="server.js">
<path fill="#ccffcc" stroke="black" d="M89,-1674.63C89,-1674.63 47,-1674.63 47,-1674.63 44,-1674.63 41,-1671.63 41,-1668.63 41,-1668.63 41,-1662.63 41,-1662.63 41,-1659.63 44,-1656.63 47,-1656.63 47,-1656.63 89,-1656.63 89,-1656.63 92,-1656.63 95,-1659.63 95,-1662.63 95,-1662.63 95,-1668.63 95,-1668.63 95,-1671.63 92,-1674.63 89,-1674.63"/>
<text text-anchor="middle" x="68" y="-1663.43" font-family="Helvetica,sans-Serif" font-size="9.00">server.js</text>
</a>
</g>
</g>
<!-- ../cart/node_modules/express/index.js -->
<g id="node11" class="node">
<title>../cart/node_modules/express/index.js</title>
<g id="a_node11"><a xlink:href="../cart/node_modules/express/index.js" xlink:title="index.js">
<polygon fill="#c40b0a" fill-opacity="0.101961" stroke="black" points="442,-1220.63 440.5,-1222.63 430,-1222.63 428.5,-1220.63 388,-1220.63 388,-1202.63 442,-1202.63 442,-1220.63"/>
<text text-anchor="middle" x="415" y="-1209.43" font-family="Helvetica,sans-Serif" font-size="9.00" fill="#c40b0a">index.js</text>
</a>
</g>
</g>
<!-- ../cart/node_modules/hypernova&#45;react/lib/index.js -->
<g id="node12" class="node">
<title>../cart/node_modules/hypernova&#45;react/lib/index.js</title>
<g id="a_node12"><a xlink:href="../cart/node_modules/hypernova-react/lib/index.js" xlink:title="index.js">
<polygon fill="#c40b0a" fill-opacity="0.101961" stroke="black" points="442,-1288.63 440.5,-1290.63 430,-1290.63 428.5,-1288.63 388,-1288.63 388,-1270.63 442,-1270.63 442,-1288.63"/>
<text text-anchor="middle" x="415" y="-1277.43" font-family="Helvetica,sans-Serif" font-size="9.00" fill="#c40b0a">index.js</text>
</a>
</g>
</g>
<!-- ../cart/node_modules/hypernova/server.js -->
<g id="node13" class="node">
<title>../cart/node_modules/hypernova/server.js</title>
<g id="a_node13"><a xlink:href="../cart/node_modules/hypernova/server.js" xlink:title="server.js">
<polygon fill="#c40b0a" fill-opacity="0.101961" stroke="black" points="442,-1374.63 440.5,-1376.63 430,-1376.63 428.5,-1374.63 388,-1374.63 388,-1356.63 442,-1356.63 442,-1374.63"/>
<text text-anchor="middle" x="415" y="-1363.43" font-family="Helvetica,sans-Serif" font-size="9.00" fill="#c40b0a">server.js</text>
</a>
</g>
</g>
<!-- ../cart/node_modules/nodemon&#45;webpack&#45;plugin/dist/index.js -->
<g id="node14" class="node">
<title>../cart/node_modules/nodemon&#45;webpack&#45;plugin/dist/index.js</title>
<g id="a_node14"><a xlink:href="../cart/node_modules/nodemon-webpack-plugin/dist/index.js" xlink:title="index.js">
<polygon fill="#c40b0a" fill-opacity="0.101961" stroke="black" points="442,-1134.63 440.5,-1136.63 430,-1136.63 428.5,-1134.63 388,-1134.63 388,-1116.63 442,-1116.63 442,-1134.63"/>
<text text-anchor="middle" x="415" y="-1123.43" font-family="Helvetica,sans-Serif" font-size="9.00" fill="#c40b0a">index.js</text>
</a>
</g>
</g>
<!-- ../cart/node_modules/prop&#45;types/index.js -->
<g id="node15" class="node">
<title>../cart/node_modules/prop&#45;types/index.js</title>
<g id="a_node15"><a xlink:href="../cart/node_modules/prop-types/index.js" xlink:title="index.js">
<polygon fill="#c40b0a" fill-opacity="0.101961" stroke="black" points="442,-1494.63 440.5,-1496.63 430,-1496.63 428.5,-1494.63 388,-1494.63 388,-1476.63 442,-1476.63 442,-1494.63"/>
<text text-anchor="middle" x="415" y="-1483.43" font-family="Helvetica,sans-Serif" font-size="9.00" fill="#c40b0a">index.js</text>
</a>
</g>
</g>
<!-- ../cart/node_modules/react/index.js -->
<g id="node16" class="node">
<title>../cart/node_modules/react/index.js</title>
<g id="a_node16"><a xlink:href="../cart/node_modules/react/index.js" xlink:title="index.js">
<polygon fill="#c40b0a" fill-opacity="0.101961" stroke="black" points="442,-1434.63 440.5,-1436.63 430,-1436.63 428.5,-1434.63 388,-1434.63 388,-1416.63 442,-1416.63 442,-1434.63"/>
<text text-anchor="middle" x="415" y="-1423.43" font-family="Helvetica,sans-Serif" font-size="9.00" fill="#c40b0a">index.js</text>
</a>
</g>
</g>
<!-- ../cart/src/client.js -->
<g id="node17" class="node">
<title>../cart/src/client.js</title>
<g id="a_node17"><a xlink:href="../cart/src/client.js" xlink:title="client.js">
<path fill="#ffffcc" stroke="black" d="M89,-1610.63C89,-1610.63 47,-1610.63 47,-1610.63 44,-1610.63 41,-1607.63 41,-1604.63 41,-1604.63 41,-1598.63 41,-1598.63 41,-1595.63 44,-1592.63 47,-1592.63 47,-1592.63 89,-1592.63 89,-1592.63 92,-1592.63 95,-1595.63 95,-1598.63 95,-1598.63 95,-1604.63 95,-1604.63 95,-1607.63 92,-1610.63 89,-1610.63"/>
<text text-anchor="middle" x="68" y="-1599.43" font-family="Helvetica,sans-Serif" font-size="9.00">client.js</text>
</a>
</g>
</g>
<!-- ../cart/src/client.js&#45;&gt;../cart/node_modules/hypernova&#45;react/lib/index.js -->
<g id="edge7" class="edge">
<title>../cart/src/client.js&#45;&gt;../cart/node_modules/hypernova&#45;react/lib/index.js</title>
<path fill="none" stroke="#000000" stroke-opacity="0.200000" d="M95.1,-1596.82C103.32,-1594.56 112.17,-1591.29 119.5,-1586.63 133.05,-1578.01 132.69,-1571.5 143.5,-1559.63 231.03,-1463.47 250.99,-1437.51 343,-1345.63 361.83,-1326.82 384.49,-1306.07 399.06,-1292.95"/>
<polygon fill="#000000" fill-opacity="0.200000" stroke="#000000" stroke-opacity="0.200000" points="400.61,-1294.38 403.67,-1288.8 397.81,-1291.25 400.61,-1294.38"/>
</g>
<!-- ../cart/src/components/Header.jsx -->
<g id="node18" class="node">
<title>../cart/src/components/Header.jsx</title>
<g id="a_node18"><a xlink:href="../cart/src/components/Header.jsx" xlink:title="Header.jsx">
<path fill="#ffff77" stroke="black" d="M239,-1588.63C239,-1588.63 192,-1588.63 192,-1588.63 189,-1588.63 186,-1585.63 186,-1582.63 186,-1582.63 186,-1576.63 186,-1576.63 186,-1573.63 189,-1570.63 192,-1570.63 192,-1570.63 239,-1570.63 239,-1570.63 242,-1570.63 245,-1573.63 245,-1576.63 245,-1576.63 245,-1582.63 245,-1582.63 245,-1585.63 242,-1588.63 239,-1588.63"/>
<text text-anchor="middle" x="215.5" y="-1577.43" font-family="Helvetica,sans-Serif" font-size="9.00">Header.jsx</text>
</a>
</g>
</g>
<!-- ../cart/src/client.js&#45;&gt;../cart/src/components/Header.jsx -->
<g id="edge6" class="edge">
<title>../cart/src/client.js&#45;&gt;../cart/src/components/Header.jsx</title>
<path fill="none" stroke="#000000" stroke-width="2" stroke-opacity="0.200000" d="M95.01,-1597.7C118.7,-1594.11 153.85,-1588.8 179.9,-1584.86"/>
<polygon fill="#000000" fill-opacity="0.200000" stroke="#000000" stroke-width="2" stroke-opacity="0.200000" points="180.36,-1586.91 185.97,-1583.94 179.73,-1582.76 180.36,-1586.91"/>
</g>
<!-- ../cart/src/components/Header.jsx&#45;&gt;../cart/node_modules/prop&#45;types/index.js -->
<g id="edge9" class="edge">
<title>../cart/src/components/Header.jsx&#45;&gt;../cart/node_modules/prop&#45;types/index.js</title>
<path fill="none" stroke="#000000" stroke-opacity="0.200000" d="M235.44,-1570.62C271.33,-1553.53 349.22,-1516.46 389.21,-1497.42"/>
<polygon fill="#000000" fill-opacity="0.200000" stroke="#000000" stroke-opacity="0.200000" points="390.31,-1499.23 394.83,-1494.75 388.51,-1495.43 390.31,-1499.23"/>
</g>
<!-- ../cart/src/components/Header.jsx&#45;&gt;../cart/node_modules/react/index.js -->
<g id="edge10" class="edge">
<title>../cart/src/components/Header.jsx&#45;&gt;../cart/node_modules/react/index.js</title>
<path fill="none" stroke="#000000" stroke-opacity="0.200000" d="M225.12,-1570.6C244.79,-1550.31 294.99,-1500.14 343,-1465.63 357.81,-1454.98 375.7,-1444.92 389.82,-1437.55"/>
<polygon fill="#000000" fill-opacity="0.200000" stroke="#000000" stroke-opacity="0.200000" points="390.86,-1439.38 395.23,-1434.76 388.93,-1435.64 390.86,-1439.38"/>
</g>
<!-- ../cart/src/components/NavBar.jsx -->
<g id="node19" class="node">
<title>../cart/src/components/NavBar.jsx</title>
<g id="a_node19"><a xlink:href="../cart/src/components/NavBar.jsx" xlink:title="NavBar.jsx">
<path fill="#ffff77" stroke="black" d="M439,-1588.63C439,-1588.63 391,-1588.63 391,-1588.63 388,-1588.63 385,-1585.63 385,-1582.63 385,-1582.63 385,-1576.63 385,-1576.63 385,-1573.63 388,-1570.63 391,-1570.63 391,-1570.63 439,-1570.63 439,-1570.63 442,-1570.63 445,-1573.63 445,-1576.63 445,-1576.63 445,-1582.63 445,-1582.63 445,-1585.63 442,-1588.63 439,-1588.63"/>
<text text-anchor="middle" x="415" y="-1577.43" font-family="Helvetica,sans-Serif" font-size="9.00">NavBar.jsx</text>
</a>
</g>
</g>
<!-- ../cart/src/components/Header.jsx&#45;&gt;../cart/src/components/NavBar.jsx -->
<g id="edge8" class="edge">
<title>../cart/src/components/Header.jsx&#45;&gt;../cart/src/components/NavBar.jsx</title>
<path fill="none" stroke="#000000" stroke-width="2" stroke-opacity="0.200000" d="M245.22,-1579.63C280.51,-1579.63 340.4,-1579.63 378.53,-1579.63"/>
<polygon fill="#000000" fill-opacity="0.200000" stroke="#000000" stroke-width="2" stroke-opacity="0.200000" points="378.93,-1581.73 384.93,-1579.63 378.93,-1577.53 378.93,-1581.73"/>
</g>
<!-- ../cart/src/index.js -->
<g id="node20" class="node">
<title>../cart/src/index.js</title>
<g id="a_node20"><a xlink:href="../cart/src/index.js" xlink:title="index.js">
<path fill="#ffffcc" stroke="black" d="M89,-1580.63C89,-1580.63 47,-1580.63 47,-1580.63 44,-1580.63 41,-1577.63 41,-1574.63 41,-1574.63 41,-1568.63 41,-1568.63 41,-1565.63 44,-1562.63 47,-1562.63 47,-1562.63 89,-1562.63 89,-1562.63 92,-1562.63 95,-1565.63 95,-1568.63 95,-1568.63 95,-1574.63 95,-1574.63 95,-1577.63 92,-1580.63 89,-1580.63"/>
<text text-anchor="middle" x="68" y="-1569.43" font-family="Helvetica,sans-Serif" font-size="9.00">index.js</text>
</a>
</g>
</g>
<!-- ../cart/src/index.js&#45;&gt;../cart/node_modules/express/index.js -->
<g id="edge12" class="edge">
<title>../cart/src/index.js&#45;&gt;../cart/node_modules/express/index.js</title>
<path fill="none" stroke="#000000" stroke-opacity="0.200000" d="M68.81,-1562.19C68.58,-1525.17 72.75,-1388.38 143.5,-1314.63 192.83,-1263.21 229.03,-1289.3 295.5,-1263.63 328.48,-1250.89 365.7,-1234.16 389.48,-1223.16"/>
<polygon fill="#000000" fill-opacity="0.200000" stroke="#000000" stroke-opacity="0.200000" points="390.37,-1225.06 394.93,-1220.63 388.6,-1221.25 390.37,-1225.06"/>
</g>
<!-- ../cart/src/index.js&#45;&gt;../cart/node_modules/hypernova&#45;react/lib/index.js -->
<g id="edge13" class="edge">
<title>../cart/src/index.js&#45;&gt;../cart/node_modules/hypernova&#45;react/lib/index.js</title>
<path fill="none" stroke="#000000" stroke-opacity="0.200000" d="M71.01,-1562.5C77.25,-1536.04 98.66,-1458.32 143.5,-1412.63 212.64,-1342.18 326.75,-1303.34 382.02,-1287.78"/>
<polygon fill="#000000" fill-opacity="0.200000" stroke="#000000" stroke-opacity="0.200000" points="382.6,-1289.79 387.82,-1286.17 381.48,-1285.75 382.6,-1289.79"/>
</g>
<!-- ../cart/src/index.js&#45;&gt;../cart/node_modules/hypernova/server.js -->
<g id="edge14" class="edge">
<title>../cart/src/index.js&#45;&gt;../cart/node_modules/hypernova/server.js</title>
<path fill="none" stroke="#000000" stroke-opacity="0.200000" d="M83.75,-1562.47C124.66,-1537.1 243.12,-1464 343,-1405.63 359.39,-1396.05 378.11,-1385.52 392.21,-1377.67"/>
<polygon fill="#000000" fill-opacity="0.200000" stroke="#000000" stroke-opacity="0.200000" points="393.34,-1379.45 397.56,-1374.7 391.3,-1375.78 393.34,-1379.45"/>
</g>
<!-- ../cart/src/index.js&#45;&gt;../cart/src/components/Header.jsx -->
<g id="edge11" class="edge">
<title>../cart/src/index.js&#45;&gt;../cart/src/components/Header.jsx</title>
<path fill="none" stroke="#000000" stroke-width="2" stroke-opacity="0.200000" d="M95.01,-1573.06C118.7,-1574.36 153.85,-1576.29 179.9,-1577.73"/>
<polygon fill="#000000" fill-opacity="0.200000" stroke="#000000" stroke-width="2" stroke-opacity="0.200000" points="179.87,-1579.83 185.97,-1578.06 180.1,-1575.63 179.87,-1579.83"/>
</g>
<!-- ../cart/webpack.config.js -->
<g id="node21" class="node">
<title>../cart/webpack.config.js</title>
<g id="a_node21"><a xlink:href="../cart/webpack.config.js" xlink:title="webpack.config.js">
<path fill="#ffffcc" stroke="black" d="M253.5,-1134.63C253.5,-1134.63 177.5,-1134.63 177.5,-1134.63 174.5,-1134.63 171.5,-1131.63 171.5,-1128.63 171.5,-1128.63 171.5,-1122.63 171.5,-1122.63 171.5,-1119.63 174.5,-1116.63 177.5,-1116.63 177.5,-1116.63 253.5,-1116.63 253.5,-1116.63 256.5,-1116.63 259.5,-1119.63 259.5,-1122.63 259.5,-1122.63 259.5,-1128.63 259.5,-1128.63 259.5,-1131.63 256.5,-1134.63 253.5,-1134.63"/>
<text text-anchor="middle" x="215.5" y="-1123.43" font-family="Helvetica,sans-Serif" font-size="9.00">webpack.config.js</text>
</a>
</g>
</g>
<!-- ../cart/webpack.config.js&#45;&gt;../cart/node_modules/nodemon&#45;webpack&#45;plugin/dist/index.js -->
<g id="edge15" class="edge">
<title>../cart/webpack.config.js&#45;&gt;../cart/node_modules/nodemon&#45;webpack&#45;plugin/dist/index.js</title>
<path fill="none" stroke="#000000" stroke-opacity="0.200000" d="M259.84,-1125.63C296.46,-1125.63 348.11,-1125.63 381.33,-1125.63"/>
<polygon fill="#000000" fill-opacity="0.200000" stroke="#000000" stroke-opacity="0.200000" points="381.72,-1127.73 387.72,-1125.63 381.72,-1123.53 381.72,-1127.73"/>
</g>
<!-- ../product&#45;list/dist/client.js -->
<g id="node22" class="node">
<title>../product&#45;list/dist/client.js</title>
<g id="a_node22"><a xlink:href="../product-list/dist/client.js" xlink:title="client.js">
<path fill="#ccffcc" stroke="black" d="M89,-1024.63C89,-1024.63 47,-1024.63 47,-1024.63 44,-1024.63 41,-1021.63 41,-1018.63 41,-1018.63 41,-1012.63 41,-1012.63 41,-1009.63 44,-1006.63 47,-1006.63 47,-1006.63 89,-1006.63 89,-1006.63 92,-1006.63 95,-1009.63 95,-1012.63 95,-1012.63 95,-1018.63 95,-1018.63 95,-1021.63 92,-1024.63 89,-1024.63"/>
<text text-anchor="middle" x="68" y="-1013.43" font-family="Helvetica,sans-Serif" font-size="9.00">client.js</text>
</a>
</g>
</g>
<!-- ../product&#45;list/dist/server.js -->
<g id="node23" class="node">
<title>../product&#45;list/dist/server.js</title>
<g id="a_node23"><a xlink:href="../product-list/dist/server.js" xlink:title="server.js">
<path fill="#ccffcc" stroke="black" d="M89,-994.63C89,-994.63 47,-994.63 47,-994.63 44,-994.63 41,-991.63 41,-988.63 41,-988.63 41,-982.63 41,-982.63 41,-979.63 44,-976.63 47,-976.63 47,-976.63 89,-976.63 89,-976.63 92,-976.63 95,-979.63 95,-982.63 95,-982.63 95,-988.63 95,-988.63 95,-991.63 92,-994.63 89,-994.63"/>
<text text-anchor="middle" x="68" y="-983.43" font-family="Helvetica,sans-Serif" font-size="9.00">server.js</text>
</a>
</g>
</g>
<!-- ../product&#45;list/node_modules/express/index.js -->
<g id="node24" class="node">
<title>../product&#45;list/node_modules/express/index.js</title>
<g id="a_node24"><a xlink:href="../product-list/node_modules/express/index.js" xlink:title="index.js">
<polygon fill="#c40b0a" fill-opacity="0.101961" stroke="black" points="242.5,-754.63 241,-756.63 230.5,-756.63 229,-754.63 188.5,-754.63 188.5,-736.63 242.5,-736.63 242.5,-754.63"/>
<text text-anchor="middle" x="215.5" y="-743.43" font-family="Helvetica,sans-Serif" font-size="9.00" fill="#c40b0a">index.js</text>
</a>
</g>
</g>
<!-- ../product&#45;list/node_modules/hypernova&#45;vue/lib/index.js -->
<g id="node25" class="node">
<title>../product&#45;list/node_modules/hypernova&#45;vue/lib/index.js</title>
<g id="a_node25"><a xlink:href="../product-list/node_modules/hypernova-vue/lib/index.js" xlink:title="index.js">
<polygon fill="#c40b0a" fill-opacity="0.101961" stroke="black" points="242.5,-668.63 241,-670.63 230.5,-670.63 229,-668.63 188.5,-668.63 188.5,-650.63 242.5,-650.63 242.5,-668.63"/>
<text text-anchor="middle" x="215.5" y="-657.43" font-family="Helvetica,sans-Serif" font-size="9.00" fill="#c40b0a">index.js</text>
</a>
</g>
</g>
<!-- ../product&#45;list/node_modules/hypernova/server.js -->
<g id="node26" class="node">
<title>../product&#45;list/node_modules/hypernova/server.js</title>
<g id="a_node26"><a xlink:href="../product-list/node_modules/hypernova/server.js" xlink:title="server.js">
<polygon fill="#c40b0a" fill-opacity="0.101961" stroke="black" points="242.5,-814.63 241,-816.63 230.5,-816.63 229,-814.63 188.5,-814.63 188.5,-796.63 242.5,-796.63 242.5,-814.63"/>
<text text-anchor="middle" x="215.5" y="-803.43" font-family="Helvetica,sans-Serif" font-size="9.00" fill="#c40b0a">server.js</text>
</a>
</g>
</g>
<!-- ../product&#45;list/node_modules/nodemon&#45;webpack&#45;plugin/dist/index.js -->
<g id="node27" class="node">
<title>../product&#45;list/node_modules/nodemon&#45;webpack&#45;plugin/dist/index.js</title>
<g id="a_node27"><a xlink:href="../product-list/node_modules/nodemon-webpack-plugin/dist/index.js" xlink:title="index.js">
<polygon fill="#c40b0a" fill-opacity="0.101961" stroke="black" points="242.5,-574.63 241,-576.63 230.5,-576.63 229,-574.63 188.5,-574.63 188.5,-556.63 242.5,-556.63 242.5,-574.63"/>
<text text-anchor="middle" x="215.5" y="-563.43" font-family="Helvetica,sans-Serif" font-size="9.00" fill="#c40b0a">index.js</text>
</a>
</g>
</g>
<!-- ../product&#45;list/node_modules/vue&#45;loader/lib/plugin.js -->
<g id="node28" class="node">
<title>../product&#45;list/node_modules/vue&#45;loader/lib/plugin.js</title>
<g id="a_node28"><a xlink:href="../product-list/node_modules/vue-loader/lib/plugin.js" xlink:title="plugin.js">
<polygon fill="#c40b0a" fill-opacity="0.101961" stroke="black" points="242.5,-480.63 241,-482.63 230.5,-482.63 229,-480.63 188.5,-480.63 188.5,-462.63 242.5,-462.63 242.5,-480.63"/>
<text text-anchor="middle" x="215.5" y="-469.43" font-family="Helvetica,sans-Serif" font-size="9.00" fill="#c40b0a">plugin.js</text>
</a>
</g>
</g>
<!-- ../product&#45;list/src/client.js -->
<g id="node29" class="node">
<title>../product&#45;list/src/client.js</title>
<g id="a_node29"><a xlink:href="../product-list/src/client.js" xlink:title="client.js">
<path fill="#ffffcc" stroke="black" d="M89,-900.63C89,-900.63 47,-900.63 47,-900.63 44,-900.63 41,-897.63 41,-894.63 41,-894.63 41,-888.63 41,-888.63 41,-885.63 44,-882.63 47,-882.63 47,-882.63 89,-882.63 89,-882.63 92,-882.63 95,-885.63 95,-888.63 95,-888.63 95,-894.63 95,-894.63 95,-897.63 92,-900.63 89,-900.63"/>
<text text-anchor="middle" x="68" y="-889.43" font-family="Helvetica,sans-Serif" font-size="9.00">client.js</text>
</a>
</g>
</g>
<!-- ../product&#45;list/src/client.js&#45;&gt;../product&#45;list/node_modules/hypernova&#45;vue/lib/index.js -->
<g id="edge17" class="edge">
<title>../product&#45;list/src/client.js&#45;&gt;../product&#45;list/node_modules/hypernova&#45;vue/lib/index.js</title>
<path fill="none" stroke="#000000" stroke-opacity="0.200000" d="M95.1,-890.6C104.01,-888.92 113.29,-885.46 119.5,-878.63 165.77,-827.67 111.18,-786.4 143.5,-725.63 155.43,-703.2 177.97,-684.28 194.47,-672.52"/>
<polygon fill="#000000" fill-opacity="0.200000" stroke="#000000" stroke-opacity="0.200000" points="196.07,-673.96 199.8,-668.81 193.68,-670.51 196.07,-673.96"/>
</g>
<!-- ../product&#45;list/src/components/ProductList.vue -->
<g id="node30" class="node">
<title>../product&#45;list/src/components/ProductList.vue</title>
<g id="a_node30"><a xlink:href="../product-list/src/components/ProductList.vue" xlink:title="ProductList.vue">
<path fill="#41f083" stroke="black" d="M249,-908.63C249,-908.63 182,-908.63 182,-908.63 179,-908.63 176,-905.63 176,-902.63 176,-902.63 176,-896.63 176,-896.63 176,-893.63 179,-890.63 182,-890.63 182,-890.63 249,-890.63 249,-890.63 252,-890.63 255,-893.63 255,-896.63 255,-896.63 255,-902.63 255,-902.63 255,-905.63 252,-908.63 249,-908.63"/>
<text text-anchor="middle" x="215.5" y="-897.43" font-family="Helvetica,sans-Serif" font-size="9.00">ProductList.vue</text>
</a>
</g>
</g>
<!-- ../product&#45;list/src/client.js&#45;&gt;../product&#45;list/src/components/ProductList.vue -->
<g id="edge16" class="edge">
<title>../product&#45;list/src/client.js&#45;&gt;../product&#45;list/src/components/ProductList.vue</title>
<path fill="none" stroke="#000000" stroke-width="2" stroke-opacity="0.200000" d="M95.01,-893.06C115.73,-894.2 145.23,-895.82 169.73,-897.17"/>
<polygon fill="#000000" fill-opacity="0.200000" stroke="#000000" stroke-width="2" stroke-opacity="0.200000" points="169.74,-899.27 175.84,-897.5 169.97,-895.08 169.74,-899.27"/>
</g>
<!-- ../product&#45;list/src/index.js -->
<g id="node31" class="node">
<title>../product&#45;list/src/index.js</title>
<g id="a_node31"><a xlink:href="../product-list/src/index.js" xlink:title="index.js">
<path fill="#ffffcc" stroke="black" d="M89,-930.63C89,-930.63 47,-930.63 47,-930.63 44,-930.63 41,-927.63 41,-924.63 41,-924.63 41,-918.63 41,-918.63 41,-915.63 44,-912.63 47,-912.63 47,-912.63 89,-912.63 89,-912.63 92,-912.63 95,-915.63 95,-918.63 95,-918.63 95,-924.63 95,-924.63 95,-927.63 92,-930.63 89,-930.63"/>
<text text-anchor="middle" x="68" y="-919.43" font-family="Helvetica,sans-Serif" font-size="9.00">index.js</text>
</a>
</g>
</g>
<!-- ../product&#45;list/src/index.js&#45;&gt;../product&#45;list/node_modules/express/index.js -->
<g id="edge19" class="edge">
<title>../product&#45;list/src/index.js&#45;&gt;../product&#45;list/node_modules/express/index.js</title>
<path fill="none" stroke="#000000" stroke-opacity="0.200000" d="M95.02,-919.36C103.92,-917.31 113.22,-913.52 119.5,-906.63 156.43,-866.1 111.34,-830.03 143.5,-785.63 153.17,-772.28 168.75,-762.79 182.85,-756.42"/>
<polygon fill="#000000" fill-opacity="0.200000" stroke="#000000" stroke-opacity="0.200000" points="183.69,-758.34 188.37,-754.04 182.03,-754.49 183.69,-758.34"/>
</g>
<!-- ../product&#45;list/src/index.js&#45;&gt;../product&#45;list/node_modules/hypernova&#45;vue/lib/index.js -->
<g id="edge20" class="edge">
<title>../product&#45;list/src/index.js&#45;&gt;../product&#45;list/node_modules/hypernova&#45;vue/lib/index.js</title>
<path fill="none" stroke="#000000" stroke-opacity="0.200000" d="M95.26,-919.58C104.19,-917.54 113.44,-913.72 119.5,-906.63 172.21,-844.93 106.25,-797.72 143.5,-725.63 155.16,-703.06 177.75,-684.16 194.33,-672.45"/>
<polygon fill="#000000" fill-opacity="0.200000" stroke="#000000" stroke-opacity="0.200000" points="195.95,-673.89 199.7,-668.76 193.57,-670.43 195.95,-673.89"/>
</g>
<!-- ../product&#45;list/src/index.js&#45;&gt;../product&#45;list/node_modules/hypernova/server.js -->
<g id="edge21" class="edge">
<title>../product&#45;list/src/index.js&#45;&gt;../product&#45;list/node_modules/hypernova/server.js</title>
<path fill="none" stroke="#000000" stroke-opacity="0.200000" d="M95.1,-916.82C103.32,-914.56 112.17,-911.29 119.5,-906.63 133.05,-898.01 132.61,-891.42 143.5,-879.63 163.25,-858.24 186.74,-833.98 201.13,-819.25"/>
<polygon fill="#000000" fill-opacity="0.200000" stroke="#000000" stroke-opacity="0.200000" points="202.95,-820.39 205.64,-814.64 199.95,-817.46 202.95,-820.39"/>
</g>
<!-- ../product&#45;list/src/index.js&#45;&gt;../product&#45;list/src/components/ProductList.vue -->
<g id="edge18" class="edge">
<title>../product&#45;list/src/index.js&#45;&gt;../product&#45;list/src/components/ProductList.vue</title>
<path fill="none" stroke="#000000" stroke-width="2" stroke-opacity="0.200000" d="M95.01,-917.7C115.73,-914.56 145.23,-910.1 169.73,-906.4"/>
<polygon fill="#000000" fill-opacity="0.200000" stroke="#000000" stroke-width="2" stroke-opacity="0.200000" points="170.23,-908.45 175.84,-905.47 169.6,-904.29 170.23,-908.45"/>
</g>
<!-- ../product&#45;list/webpack.config.js -->
<g id="node32" class="node">
<title>../product&#45;list/webpack.config.js</title>
<g id="a_node32"><a xlink:href="../product-list/webpack.config.js" xlink:title="webpack.config.js">
<path fill="#ffffcc" stroke="black" d="M106,-527.63C106,-527.63 30,-527.63 30,-527.63 27,-527.63 24,-524.63 24,-521.63 24,-521.63 24,-515.63 24,-515.63 24,-512.63 27,-509.63 30,-509.63 30,-509.63 106,-509.63 106,-509.63 109,-509.63 112,-512.63 112,-515.63 112,-515.63 112,-521.63 112,-521.63 112,-524.63 109,-527.63 106,-527.63"/>
<text text-anchor="middle" x="68" y="-516.43" font-family="Helvetica,sans-Serif" font-size="9.00">webpack.config.js</text>
</a>
</g>
</g>
<!-- ../product&#45;list/webpack.config.js&#45;&gt;../product&#45;list/node_modules/nodemon&#45;webpack&#45;plugin/dist/index.js -->
<g id="edge22" class="edge">
<title>../product&#45;list/webpack.config.js&#45;&gt;../product&#45;list/node_modules/nodemon&#45;webpack&#45;plugin/dist/index.js</title>
<path fill="none" stroke="#000000" stroke-opacity="0.200000" d="M97.05,-527.69C121.52,-535.59 156.99,-547.05 182.54,-555.31"/>
<polygon fill="#000000" fill-opacity="0.200000" stroke="#000000" stroke-opacity="0.200000" points="182.13,-557.38 188.49,-557.23 183.42,-553.38 182.13,-557.38"/>
</g>
<!-- ../product&#45;list/webpack.config.js&#45;&gt;../product&#45;list/node_modules/vue&#45;loader/lib/plugin.js -->
<g id="edge23" class="edge">
<title>../product&#45;list/webpack.config.js&#45;&gt;../product&#45;list/node_modules/vue&#45;loader/lib/plugin.js</title>
<path fill="none" stroke="#000000" stroke-opacity="0.200000" d="M97.05,-509.57C121.52,-501.66 156.99,-490.2 182.54,-481.95"/>
<polygon fill="#000000" fill-opacity="0.200000" stroke="#000000" stroke-opacity="0.200000" points="183.42,-483.87 188.49,-480.03 182.13,-479.88 183.42,-483.87"/>
</g>
</g>
</svg>
