<?xml version="1.0" encoding="UTF-8" standalone="no"?>
<!DOCTYPE svg PUBLIC "-//W3C//DTD SVG 1.1//EN"
 "http://www.w3.org/Graphics/SVG/1.1/DTD/svg11.dtd">
<!-- Generated by graphviz version 2.48.0 (20210717.1556)
 -->
<!-- Title: dependency&#45;cruiser output Pages: 1 -->
<svg width="355pt" height="1494pt"
 viewBox="0.00 0.00 354.50 1494.00" xmlns="http://www.w3.org/2000/svg" xmlns:xlink="http://www.w3.org/1999/xlink">
<g id="graph0" class="graph" transform="scale(1 1) rotate(0) translate(4 1490)">
<title>dependency&#45;cruiser output</title>
<polygon fill="white" stroke="transparent" points="-4,4 -4,-1490 350.5,-1490 350.5,4 -4,4"/>
<g id="clust1" class="cluster">
<title>cluster_..</title>
<path fill="#ffffff" stroke="black" stroke-width="2" d="M20,-750C20,-750 326.5,-750 326.5,-750 332.5,-750 338.5,-756 338.5,-762 338.5,-762 338.5,-1466 338.5,-1466 338.5,-1472 332.5,-1478 326.5,-1478 326.5,-1478 20,-1478 20,-1478 14,-1478 8,-1472 8,-1466 8,-1466 8,-762 8,-762 8,-756 14,-750 20,-750"/>
<text text-anchor="middle" x="173.25" y="-1466.8" font-family="Helvetica,sans-Serif" font-weight="bold" font-size="9.00">..</text>
</g>
<g id="clust2" class="cluster">
<title>cluster_../aggregator</title>
<path fill="#ffffff" stroke="black" stroke-width="2" d="M28.5,-758C28.5,-758 107.5,-758 107.5,-758 113.5,-758 119.5,-764 119.5,-770 119.5,-770 119.5,-952 119.5,-952 119.5,-958 113.5,-964 107.5,-964 107.5,-964 28.5,-964 28.5,-964 22.5,-964 16.5,-958 16.5,-952 16.5,-952 16.5,-770 16.5,-770 16.5,-764 22.5,-758 28.5,-758"/>
<text text-anchor="middle" x="68" y="-952.8" font-family="Helvetica,sans-Serif" font-weight="bold" font-size="9.00">aggregator</text>
</g>
<g id="clust3" class="cluster">
<title>cluster_../aggregator/src</title>
<path fill="#ffffff" stroke="black" stroke-width="2" d="M36.5,-766C36.5,-766 99.5,-766 99.5,-766 105.5,-766 111.5,-772 111.5,-778 111.5,-778 111.5,-926 111.5,-926 111.5,-932 105.5,-938 99.5,-938 99.5,-938 36.5,-938 36.5,-938 30.5,-938 24.5,-932 24.5,-926 24.5,-926 24.5,-778 24.5,-778 24.5,-772 30.5,-766 36.5,-766"/>
<text text-anchor="middle" x="68" y="-926.8" font-family="Helvetica,sans-Serif" font-weight="bold" font-size="9.00">src</text>
</g>
<g id="clust4" class="cluster">
<title>cluster_../aggregator/src/services</title>
<path fill="#ffffff" stroke="black" stroke-width="2" d="M44.5,-800C44.5,-800 91.5,-800 91.5,-800 97.5,-800 103.5,-806 103.5,-812 103.5,-812 103.5,-900 103.5,-900 103.5,-906 97.5,-912 91.5,-912 91.5,-912 44.5,-912 44.5,-912 38.5,-912 32.5,-906 32.5,-900 32.5,-900 32.5,-812 32.5,-812 32.5,-806 38.5,-800 44.5,-800"/>
<text text-anchor="middle" x="68" y="-900.8" font-family="Helvetica,sans-Serif" font-weight="bold" font-size="9.00">services</text>
</g>
<g id="clust5" class="cluster">
<title>cluster_../cart</title>
<path fill="#ffffff" stroke="black" stroke-width="2" d="M28,-1216C28,-1216 318.5,-1216 318.5,-1216 324.5,-1216 330.5,-1222 330.5,-1228 330.5,-1228 330.5,-1440 330.5,-1440 330.5,-1446 324.5,-1452 318.5,-1452 318.5,-1452 28,-1452 28,-1452 22,-1452 16,-1446 16,-1440 16,-1440 16,-1228 16,-1228 16,-1222 22,-1216 28,-1216"/>
<text text-anchor="middle" x="173.25" y="-1440.8" font-family="Helvetica,sans-Serif" font-weight="bold" font-size="9.00">cart</text>
</g>
<g id="clust6" class="cluster">
<title>cluster_../cart/dist</title>
<path fill="#ffffff" stroke="black" stroke-width="2" d="M45,-1224C45,-1224 91,-1224 91,-1224 97,-1224 103,-1230 103,-1236 103,-1236 103,-1294 103,-1294 103,-1300 97,-1306 91,-1306 91,-1306 45,-1306 45,-1306 39,-1306 33,-1300 33,-1294 33,-1294 33,-1236 33,-1236 33,-1230 39,-1224 45,-1224"/>
<text text-anchor="middle" x="68" y="-1294.8" font-family="Helvetica,sans-Serif" font-weight="bold" font-size="9.00">dist</text>
</g>
<g id="clust7" class="cluster">
<title>cluster_../cart/src</title>
<path fill="#ffffff" stroke="black" stroke-width="2" d="M45,-1340C45,-1340 310.5,-1340 310.5,-1340 316.5,-1340 322.5,-1346 322.5,-1352 322.5,-1352 322.5,-1414 322.5,-1414 322.5,-1420 316.5,-1426 310.5,-1426 310.5,-1426 45,-1426 45,-1426 39,-1426 33,-1420 33,-1414 33,-1414 33,-1352 33,-1352 33,-1346 39,-1340 45,-1340"/>
<text text-anchor="middle" x="177.75" y="-1414.8" font-family="Helvetica,sans-Serif" font-weight="bold" font-size="9.00">src</text>
</g>
<g id="clust8" class="cluster">
<title>cluster_../cart/src/components</title>
<path fill="#ffffff" stroke="black" stroke-width="2" d="M149.5,-1348C149.5,-1348 302.5,-1348 302.5,-1348 308.5,-1348 314.5,-1354 314.5,-1360 314.5,-1360 314.5,-1388 314.5,-1388 314.5,-1394 308.5,-1400 302.5,-1400 302.5,-1400 149.5,-1400 149.5,-1400 143.5,-1400 137.5,-1394 137.5,-1388 137.5,-1388 137.5,-1360 137.5,-1360 137.5,-1354 143.5,-1348 149.5,-1348"/>
<text text-anchor="middle" x="226" y="-1388.8" font-family="Helvetica,sans-Serif" font-weight="bold" font-size="9.00">components</text>
</g>
<g id="clust9" class="cluster">
<title>cluster_../product&#45;list</title>
<path fill="#ffffff" stroke="black" stroke-width="2" d="M28,-972C28,-972 226.5,-972 226.5,-972 232.5,-972 238.5,-978 238.5,-984 238.5,-984 238.5,-1196 238.5,-1196 238.5,-1202 232.5,-1208 226.5,-1208 226.5,-1208 28,-1208 28,-1208 22,-1208 16,-1202 16,-1196 16,-1196 16,-984 16,-984 16,-978 22,-972 28,-972"/>
<text text-anchor="middle" x="127.25" y="-1196.8" font-family="Helvetica,sans-Serif" font-weight="bold" font-size="9.00">product&#45;list</text>
</g>
<g id="clust10" class="cluster">
<title>cluster_../product&#45;list/dist</title>
<path fill="#ffffff" stroke="black" stroke-width="2" d="M45,-980C45,-980 91,-980 91,-980 97,-980 103,-986 103,-992 103,-992 103,-1050 103,-1050 103,-1056 97,-1062 91,-1062 91,-1062 45,-1062 45,-1062 39,-1062 33,-1056 33,-1050 33,-1050 33,-992 33,-992 33,-986 39,-980 45,-980"/>
<text text-anchor="middle" x="68" y="-1050.8" font-family="Helvetica,sans-Serif" font-weight="bold" font-size="9.00">dist</text>
</g>
<g id="clust11" class="cluster">
<title>cluster_../product&#45;list/src</title>
<path fill="#ffffff" stroke="black" stroke-width="2" d="M45,-1096C45,-1096 218.5,-1096 218.5,-1096 224.5,-1096 230.5,-1102 230.5,-1108 230.5,-1108 230.5,-1170 230.5,-1170 230.5,-1176 224.5,-1182 218.5,-1182 218.5,-1182 45,-1182 45,-1182 39,-1182 33,-1176 33,-1170 33,-1170 33,-1108 33,-1108 33,-1102 39,-1096 45,-1096"/>
<text text-anchor="middle" x="131.75" y="-1170.8" font-family="Helvetica,sans-Serif" font-weight="bold" font-size="9.00">src</text>
</g>
<g id="clust12" class="cluster">
<title>cluster_../product&#45;list/src/components</title>
<path fill="#ffffff" stroke="black" stroke-width="2" d="M139.5,-1104C139.5,-1104 210.5,-1104 210.5,-1104 216.5,-1104 222.5,-1110 222.5,-1116 222.5,-1116 222.5,-1144 222.5,-1144 222.5,-1150 216.5,-1156 210.5,-1156 210.5,-1156 139.5,-1156 139.5,-1156 133.5,-1156 127.5,-1150 127.5,-1144 127.5,-1144 127.5,-1116 127.5,-1116 127.5,-1110 133.5,-1104 139.5,-1104"/>
<text text-anchor="middle" x="175" y="-1144.8" font-family="Helvetica,sans-Serif" font-weight="bold" font-size="9.00">components</text>
</g>
<g id="clust13" class="cluster">
<title>cluster_src</title>
<path fill="#ffffff" stroke="black" stroke-width="2" d="M143.5,-626C143.5,-626 206.5,-626 206.5,-626 212.5,-626 218.5,-632 218.5,-638 218.5,-638 218.5,-730 218.5,-730 218.5,-736 212.5,-742 206.5,-742 206.5,-742 143.5,-742 143.5,-742 137.5,-742 131.5,-736 131.5,-730 131.5,-730 131.5,-638 131.5,-638 131.5,-632 137.5,-626 143.5,-626"/>
<text text-anchor="middle" x="175" y="-730.8" font-family="Helvetica,sans-Serif" font-weight="bold" font-size="9.00">src</text>
</g>
<g id="clust14" class="cluster">
<title>cluster_src/services</title>
<path fill="#ffffff" stroke="black" stroke-width="2" d="M151.5,-634C151.5,-634 198.5,-634 198.5,-634 204.5,-634 210.5,-640 210.5,-646 210.5,-646 210.5,-704 210.5,-704 210.5,-710 204.5,-716 198.5,-716 198.5,-716 151.5,-716 151.5,-716 145.5,-716 139.5,-710 139.5,-704 139.5,-704 139.5,-646 139.5,-646 139.5,-640 145.5,-634 151.5,-634"/>
<text text-anchor="middle" x="175" y="-704.8" font-family="Helvetica,sans-Serif" font-weight="bold" font-size="9.00">services</text>
</g>
<!-- ../aggregator/src/index.js -->
<g id="node1" class="node">
<title>../aggregator/src/index.js</title>
<g id="a_node1"><a xlink:href="../aggregator/src/index.js" xlink:title="index.js">
<path fill="#ffffcc" stroke="black" d="M89,-792C89,-792 47,-792 47,-792 44,-792 41,-789 41,-786 41,-786 41,-780 41,-780 41,-777 44,-774 47,-774 47,-774 89,-774 89,-774 92,-774 95,-777 95,-780 95,-780 95,-786 95,-786 95,-789 92,-792 89,-792"/>
<text text-anchor="middle" x="68" y="-780.8" font-family="Helvetica,sans-Serif" font-size="9.00">index.js</text>
</a>
</g>
</g>
<!-- src/services/content.js -->
<g id="node2" class="node">
<title>src/services/content.js</title>
<g id="a_node2"><a xlink:href="src/services/content.js" xlink:title="content.js">
<path fill="#ffffcc" stroke="black" d="M196.5,-690C196.5,-690 153.5,-690 153.5,-690 150.5,-690 147.5,-687 147.5,-684 147.5,-684 147.5,-678 147.5,-678 147.5,-675 150.5,-672 153.5,-672 153.5,-672 196.5,-672 196.5,-672 199.5,-672 202.5,-675 202.5,-678 202.5,-678 202.5,-684 202.5,-684 202.5,-687 199.5,-690 196.5,-690"/>
<text text-anchor="middle" x="175" y="-678.8" font-family="Helvetica,sans-Serif" font-size="9.00">content.js</text>
</a>
</g>
</g>
<!-- ../aggregator/src/index.js&#45;&gt;src/services/content.js -->
<g id="edge1" class="edge">
<title>../aggregator/src/index.js&#45;&gt;src/services/content.js</title>
<path fill="none" stroke="#000000" stroke-width="2" stroke-opacity="0.200000" d="M78.32,-773.95C96.87,-755.92 138.52,-715.47 160.24,-694.37"/>
<polygon fill="#000000" fill-opacity="0.200000" stroke="#000000" stroke-width="2" stroke-opacity="0.200000" points="161.71,-695.87 164.55,-690.18 158.78,-692.85 161.71,-695.87"/>
</g>
<!-- src/services/layout.js -->
<g id="node3" class="node">
<title>src/services/layout.js</title>
<g id="a_node3"><a xlink:href="src/services/layout.js" xlink:title="layout.js">
<path fill="#ffffcc" stroke="black" d="M196,-660C196,-660 154,-660 154,-660 151,-660 148,-657 148,-654 148,-654 148,-648 148,-648 148,-645 151,-642 154,-642 154,-642 196,-642 196,-642 199,-642 202,-645 202,-648 202,-648 202,-654 202,-654 202,-657 199,-660 196,-660"/>
<text text-anchor="middle" x="175" y="-648.8" font-family="Helvetica,sans-Serif" font-size="9.00">layout.js</text>
</a>
</g>
</g>
<!-- ../aggregator/src/index.js&#45;&gt;src/services/layout.js -->
<g id="edge2" class="edge">
<title>../aggregator/src/index.js&#45;&gt;src/services/layout.js</title>
<path fill="none" stroke="#000000" stroke-width="2" stroke-opacity="0.200000" d="M70.99,-773.89C76.23,-752.01 92.53,-696.04 127.5,-666 131.66,-662.43 136.68,-659.7 141.87,-657.63"/>
<polygon fill="#000000" fill-opacity="0.200000" stroke="#000000" stroke-width="2" stroke-opacity="0.200000" points="142.57,-659.6 147.52,-655.62 141.17,-655.65 142.57,-659.6"/>
</g>
<!-- path -->
<g id="node4" class="node">
<title>path</title>
<path fill="#ffffcc" stroke="grey" d="M196,-618C196,-618 154,-618 154,-618 151,-618 148,-615 148,-612 148,-612 148,-606 148,-606 148,-603 151,-600 154,-600 154,-600 196,-600 196,-600 199,-600 202,-603 202,-606 202,-606 202,-612 202,-612 202,-615 199,-618 196,-618"/>
<text text-anchor="middle" x="175" y="-606.8" font-family="Helvetica,sans-Serif" font-size="9.00" fill="grey">path</text>
</g>
<!-- ../aggregator/src/index.js&#45;&gt;path -->
<g id="edge3" class="edge">
<title>../aggregator/src/index.js&#45;&gt;path</title>
<path fill="none" stroke="#000000" stroke-dasharray="5,2" stroke-opacity="0.200000" d="M70.13,-773.89C73.75,-748.22 87.3,-674.32 127.5,-631 131.6,-626.58 136.77,-622.96 142.16,-620.03"/>
<polygon fill="#000000" fill-opacity="0.200000" stroke="#000000" stroke-opacity="0.200000" points="143.16,-621.88 147.6,-617.32 141.29,-618.12 143.16,-621.88"/>
</g>
<!-- ../aggregator/src/services/content.js -->
<g id="node5" class="node">
<title>../aggregator/src/services/content.js</title>
<g id="a_node5"><a xlink:href="../aggregator/src/services/content.js" xlink:title="content.js">
<path fill="#ccffcc" stroke="black" d="M89.5,-886C89.5,-886 46.5,-886 46.5,-886 43.5,-886 40.5,-883 40.5,-880 40.5,-880 40.5,-874 40.5,-874 40.5,-871 43.5,-868 46.5,-868 46.5,-868 89.5,-868 89.5,-868 92.5,-868 95.5,-871 95.5,-874 95.5,-874 95.5,-880 95.5,-880 95.5,-883 92.5,-886 89.5,-886"/>
<text text-anchor="middle" x="68" y="-874.8" font-family="Helvetica,sans-Serif" font-size="9.00">content.js</text>
</a>
</g>
</g>
<!-- ../aggregator/src/services/layout.js -->
<g id="node6" class="node">
<title>../aggregator/src/services/layout.js</title>
<g id="a_node6"><a xlink:href="../aggregator/src/services/layout.js" xlink:title="layout.js">
<path fill="#ccffcc" stroke="black" d="M89,-856C89,-856 47,-856 47,-856 44,-856 41,-853 41,-850 41,-850 41,-844 41,-844 41,-841 44,-838 47,-838 47,-838 89,-838 89,-838 92,-838 95,-841 95,-844 95,-844 95,-850 95,-850 95,-853 92,-856 89,-856"/>
<text text-anchor="middle" x="68" y="-844.8" font-family="Helvetica,sans-Serif" font-size="9.00">layout.js</text>
</a>
</g>
</g>
<!-- ../aggregator/src/services/todo.js -->
<g id="node7" class="node">
<title>../aggregator/src/services/todo.js</title>
<g id="a_node7"><a xlink:href="../aggregator/src/services/todo.js" xlink:title="todo.js">
<path fill="#ccffcc" stroke="black" d="M89,-826C89,-826 47,-826 47,-826 44,-826 41,-823 41,-820 41,-820 41,-814 41,-814 41,-811 44,-808 47,-808 47,-808 89,-808 89,-808 92,-808 95,-811 95,-814 95,-814 95,-820 95,-820 95,-823 92,-826 89,-826"/>
<text text-anchor="middle" x="68" y="-814.8" font-family="Helvetica,sans-Serif" font-size="9.00">todo.js</text>
</a>
</g>
</g>
<!-- ../cart/dist/client.js -->
<g id="node8" class="node">
<title>../cart/dist/client.js</title>
<g id="a_node8"><a xlink:href="../cart/dist/client.js" xlink:title="client.js">
<path fill="#ccffcc" stroke="black" d="M89,-1280C89,-1280 47,-1280 47,-1280 44,-1280 41,-1277 41,-1274 41,-1274 41,-1268 41,-1268 41,-1265 44,-1262 47,-1262 47,-1262 89,-1262 89,-1262 92,-1262 95,-1265 95,-1268 95,-1268 95,-1274 95,-1274 95,-1277 92,-1280 89,-1280"/>
<text text-anchor="middle" x="68" y="-1268.8" font-family="Helvetica,sans-Serif" font-size="9.00">client.js</text>
</a>
</g>
</g>
<!-- ../cart/dist/server.js -->
<g id="node9" class="node">
<title>../cart/dist/server.js</title>
<g id="a_node9"><a xlink:href="../cart/dist/server.js" xlink:title="server.js">
<path fill="#ffffcc" stroke="black" d="M89,-1250C89,-1250 47,-1250 47,-1250 44,-1250 41,-1247 41,-1244 41,-1244 41,-1238 41,-1238 41,-1235 44,-1232 47,-1232 47,-1232 89,-1232 89,-1232 92,-1232 95,-1235 95,-1238 95,-1238 95,-1244 95,-1244 95,-1247 92,-1250 89,-1250"/>
<text text-anchor="middle" x="68" y="-1238.8" font-family="Helvetica,sans-Serif" font-size="9.00">server.js</text>
</a>
</g>
</g>
<!-- ../cart/dist/server.js&#45;&gt;path -->
<g id="edge16" class="edge">
<title>../cart/dist/server.js&#45;&gt;path</title>
<path fill="none" stroke="#000000" stroke-dasharray="5,2" stroke-opacity="0.200000" d="M81.29,-1231.88C93.59,-1221.92 111.75,-1204.74 119.5,-1185 130.75,-1156.35 110.85,-656.89 127.5,-631 131.05,-625.48 136.4,-621.32 142.21,-618.18"/>
<polygon fill="#000000" fill-opacity="0.200000" stroke="#000000" stroke-opacity="0.200000" points="143.14,-620.07 147.65,-615.59 141.33,-616.28 143.14,-620.07"/>
</g>
<!-- assert -->
<g id="node10" class="node">
<title>assert</title>
<path fill="#ffffcc" stroke="grey" d="M196,-168C196,-168 154,-168 154,-168 151,-168 148,-165 148,-162 148,-162 148,-156 148,-156 148,-153 151,-150 154,-150 154,-150 196,-150 196,-150 199,-150 202,-153 202,-156 202,-156 202,-162 202,-162 202,-165 199,-168 196,-168"/>
<text text-anchor="middle" x="175" y="-156.8" font-family="Helvetica,sans-Serif" font-size="9.00" fill="grey">assert</text>
</g>
<!-- ../cart/dist/server.js&#45;&gt;assert -->
<g id="edge4" class="edge">
<title>../cart/dist/server.js&#45;&gt;assert</title>
<path fill="none" stroke="#000000" stroke-dasharray="5,2" stroke-opacity="0.200000" d="M81.32,-1231.89C93.63,-1221.94 111.81,-1204.77 119.5,-1185 129.68,-1158.83 110.88,-196.64 127.5,-174 131.11,-169.08 136.37,-165.74 142.07,-163.48"/>
<polygon fill="#000000" fill-opacity="0.200000" stroke="#000000" stroke-opacity="0.200000" points="142.82,-165.44 147.86,-161.56 141.5,-161.45 142.82,-165.44"/>
</g>
<!-- async_hooks -->
<g id="node11" class="node">
<title>async_hooks</title>
<path fill="#ffffcc" stroke="grey" d="M203.5,-138C203.5,-138 146.5,-138 146.5,-138 143.5,-138 140.5,-135 140.5,-132 140.5,-132 140.5,-126 140.5,-126 140.5,-123 143.5,-120 146.5,-120 146.5,-120 203.5,-120 203.5,-120 206.5,-120 209.5,-123 209.5,-126 209.5,-126 209.5,-132 209.5,-132 209.5,-135 206.5,-138 203.5,-138"/>
<text text-anchor="middle" x="175" y="-126.8" font-family="Helvetica,sans-Serif" font-size="9.00" fill="grey">async_hooks</text>
</g>
<!-- ../cart/dist/server.js&#45;&gt;async_hooks -->
<g id="edge5" class="edge">
<title>../cart/dist/server.js&#45;&gt;async_hooks</title>
<path fill="none" stroke="#000000" stroke-dasharray="5,2" stroke-opacity="0.200000" d="M81.32,-1231.89C93.63,-1221.94 111.82,-1204.77 119.5,-1185 129.98,-1158.05 110.39,-167.31 127.5,-144 129.51,-141.26 132.02,-139.02 134.84,-137.17"/>
<polygon fill="#000000" fill-opacity="0.200000" stroke="#000000" stroke-opacity="0.200000" points="135.92,-138.98 140.19,-134.27 133.91,-135.29 135.92,-138.98"/>
</g>
<!-- buffer -->
<g id="node12" class="node">
<title>buffer</title>
<path fill="#ffffcc" stroke="grey" d="M196,-108C196,-108 154,-108 154,-108 151,-108 148,-105 148,-102 148,-102 148,-96 148,-96 148,-93 151,-90 154,-90 154,-90 196,-90 196,-90 199,-90 202,-93 202,-96 202,-96 202,-102 202,-102 202,-105 199,-108 196,-108"/>
<text text-anchor="middle" x="175" y="-96.8" font-family="Helvetica,sans-Serif" font-size="9.00" fill="grey">buffer</text>
</g>
<!-- ../cart/dist/server.js&#45;&gt;buffer -->
<g id="edge6" class="edge">
<title>../cart/dist/server.js&#45;&gt;buffer</title>
<path fill="none" stroke="#000000" stroke-dasharray="5,2" stroke-opacity="0.200000" d="M81.32,-1231.89C93.64,-1221.94 111.82,-1204.77 119.5,-1185 130.28,-1157.27 109.9,-137.98 127.5,-114 131.11,-109.08 136.37,-105.74 142.07,-103.48"/>
<polygon fill="#000000" fill-opacity="0.200000" stroke="#000000" stroke-opacity="0.200000" points="142.82,-105.44 147.86,-101.56 141.5,-101.45 142.82,-105.44"/>
</g>
<!-- cluster -->
<g id="node13" class="node">
<title>cluster</title>
<path fill="#ffffcc" stroke="grey" d="M196,-78C196,-78 154,-78 154,-78 151,-78 148,-75 148,-72 148,-72 148,-66 148,-66 148,-63 151,-60 154,-60 154,-60 196,-60 196,-60 199,-60 202,-63 202,-66 202,-66 202,-72 202,-72 202,-75 199,-78 196,-78"/>
<text text-anchor="middle" x="175" y="-66.8" font-family="Helvetica,sans-Serif" font-size="9.00" fill="grey">cluster</text>
</g>
<!-- ../cart/dist/server.js&#45;&gt;cluster -->
<g id="edge7" class="edge">
<title>../cart/dist/server.js&#45;&gt;cluster</title>
<path fill="none" stroke="#000000" stroke-dasharray="5,2" stroke-opacity="0.200000" d="M81.32,-1231.89C93.64,-1221.94 111.82,-1204.77 119.5,-1185 130.57,-1156.49 109.41,-108.66 127.5,-84 131.11,-79.08 136.37,-75.74 142.07,-73.48"/>
<polygon fill="#000000" fill-opacity="0.200000" stroke="#000000" stroke-opacity="0.200000" points="142.82,-75.44 147.86,-71.56 141.5,-71.45 142.82,-75.44"/>
</g>
<!-- crypto -->
<g id="node14" class="node">
<title>crypto</title>
<path fill="#ffffcc" stroke="grey" d="M196,-48C196,-48 154,-48 154,-48 151,-48 148,-45 148,-42 148,-42 148,-36 148,-36 148,-33 151,-30 154,-30 154,-30 196,-30 196,-30 199,-30 202,-33 202,-36 202,-36 202,-42 202,-42 202,-45 199,-48 196,-48"/>
<text text-anchor="middle" x="175" y="-36.8" font-family="Helvetica,sans-Serif" font-size="9.00" fill="grey">crypto</text>
</g>
<!-- ../cart/dist/server.js&#45;&gt;crypto -->
<g id="edge8" class="edge">
<title>../cart/dist/server.js&#45;&gt;crypto</title>
<path fill="none" stroke="#000000" stroke-dasharray="5,2" stroke-opacity="0.200000" d="M81.32,-1231.89C93.64,-1221.94 111.82,-1204.77 119.5,-1185 130.87,-1155.71 108.92,-79.33 127.5,-54 131.11,-49.08 136.37,-45.73 142.06,-43.48"/>
<polygon fill="#000000" fill-opacity="0.200000" stroke="#000000" stroke-opacity="0.200000" points="142.82,-45.44 147.86,-41.56 141.5,-41.45 142.82,-45.44"/>
</g>
<!-- events -->
<g id="node15" class="node">
<title>events</title>
<path fill="#ffffcc" stroke="grey" d="M196,-18C196,-18 154,-18 154,-18 151,-18 148,-15 148,-12 148,-12 148,-6 148,-6 148,-3 151,0 154,0 154,0 196,0 196,0 199,0 202,-3 202,-6 202,-6 202,-12 202,-12 202,-15 199,-18 196,-18"/>
<text text-anchor="middle" x="175" y="-6.8" font-family="Helvetica,sans-Serif" font-size="9.00" fill="grey">events</text>
</g>
<!-- ../cart/dist/server.js&#45;&gt;events -->
<g id="edge9" class="edge">
<title>../cart/dist/server.js&#45;&gt;events</title>
<path fill="none" stroke="#000000" stroke-dasharray="5,2" stroke-opacity="0.200000" d="M81.32,-1231.89C93.64,-1221.94 111.82,-1204.77 119.5,-1185 131.17,-1154.94 108.43,-50.01 127.5,-24 131.11,-19.08 136.37,-15.73 142.06,-13.48"/>
<polygon fill="#000000" fill-opacity="0.200000" stroke="#000000" stroke-opacity="0.200000" points="142.82,-15.44 147.86,-11.56 141.5,-11.45 142.82,-15.44"/>
</g>
<!-- fs -->
<g id="node16" class="node">
<title>fs</title>
<path fill="#ffffcc" stroke="grey" d="M196,-588C196,-588 154,-588 154,-588 151,-588 148,-585 148,-582 148,-582 148,-576 148,-576 148,-573 151,-570 154,-570 154,-570 196,-570 196,-570 199,-570 202,-573 202,-576 202,-576 202,-582 202,-582 202,-585 199,-588 196,-588"/>
<text text-anchor="middle" x="175" y="-576.8" font-family="Helvetica,sans-Serif" font-size="9.00" fill="grey">fs</text>
</g>
<!-- ../cart/dist/server.js&#45;&gt;fs -->
<g id="edge10" class="edge">
<title>../cart/dist/server.js&#45;&gt;fs</title>
<path fill="none" stroke="#000000" stroke-dasharray="5,2" stroke-opacity="0.200000" d="M81.29,-1231.88C93.59,-1221.93 111.76,-1204.74 119.5,-1185 125.49,-1169.71 117.75,-607.21 127.5,-594 131.13,-589.09 136.39,-585.75 142.09,-583.49"/>
<polygon fill="#000000" fill-opacity="0.200000" stroke="#000000" stroke-opacity="0.200000" points="142.85,-585.46 147.88,-581.58 141.53,-581.47 142.85,-585.46"/>
</g>
<!-- http -->
<g id="node17" class="node">
<title>http</title>
<path fill="#ffffcc" stroke="grey" d="M196,-558C196,-558 154,-558 154,-558 151,-558 148,-555 148,-552 148,-552 148,-546 148,-546 148,-543 151,-540 154,-540 154,-540 196,-540 196,-540 199,-540 202,-543 202,-546 202,-546 202,-552 202,-552 202,-555 199,-558 196,-558"/>
<text text-anchor="middle" x="175" y="-546.8" font-family="Helvetica,sans-Serif" font-size="9.00" fill="grey">http</text>
</g>
<!-- ../cart/dist/server.js&#45;&gt;http -->
<g id="edge11" class="edge">
<title>../cart/dist/server.js&#45;&gt;http</title>
<path fill="none" stroke="#000000" stroke-dasharray="5,2" stroke-opacity="0.200000" d="M81.3,-1231.88C93.6,-1221.93 111.76,-1204.75 119.5,-1185 125.79,-1168.94 117.26,-577.88 127.5,-564 131.13,-559.09 136.39,-555.75 142.09,-553.49"/>
<polygon fill="#000000" fill-opacity="0.200000" stroke="#000000" stroke-opacity="0.200000" points="142.84,-555.45 147.88,-551.58 141.52,-551.47 142.84,-555.45"/>
</g>
<!-- https -->
<g id="node18" class="node">
<title>https</title>
<path fill="#ffffcc" stroke="grey" d="M196,-528C196,-528 154,-528 154,-528 151,-528 148,-525 148,-522 148,-522 148,-516 148,-516 148,-513 151,-510 154,-510 154,-510 196,-510 196,-510 199,-510 202,-513 202,-516 202,-516 202,-522 202,-522 202,-525 199,-528 196,-528"/>
<text text-anchor="middle" x="175" y="-516.8" font-family="Helvetica,sans-Serif" font-size="9.00" fill="grey">https</text>
</g>
<!-- ../cart/dist/server.js&#45;&gt;https -->
<g id="edge12" class="edge">
<title>../cart/dist/server.js&#45;&gt;https</title>
<path fill="none" stroke="#000000" stroke-dasharray="5,2" stroke-opacity="0.200000" d="M81.3,-1231.88C93.6,-1221.93 111.77,-1204.75 119.5,-1185 126.09,-1168.16 116.76,-548.55 127.5,-534 131.13,-529.08 136.39,-525.75 142.08,-523.49"/>
<polygon fill="#000000" fill-opacity="0.200000" stroke="#000000" stroke-opacity="0.200000" points="142.84,-525.45 147.88,-521.57 141.52,-521.46 142.84,-525.45"/>
</g>
<!-- module -->
<g id="node19" class="node">
<title>module</title>
<path fill="#ffffcc" stroke="grey" d="M196,-498C196,-498 154,-498 154,-498 151,-498 148,-495 148,-492 148,-492 148,-486 148,-486 148,-483 151,-480 154,-480 154,-480 196,-480 196,-480 199,-480 202,-483 202,-486 202,-486 202,-492 202,-492 202,-495 199,-498 196,-498"/>
<text text-anchor="middle" x="175" y="-486.8" font-family="Helvetica,sans-Serif" font-size="9.00" fill="grey">module</text>
</g>
<!-- ../cart/dist/server.js&#45;&gt;module -->
<g id="edge13" class="edge">
<title>../cart/dist/server.js&#45;&gt;module</title>
<path fill="none" stroke="#000000" stroke-dasharray="5,2" stroke-opacity="0.200000" d="M81.3,-1231.88C93.6,-1221.93 111.78,-1204.75 119.5,-1185 126.39,-1167.38 116.27,-519.23 127.5,-504 131.12,-499.08 136.39,-495.75 142.08,-493.49"/>
<polygon fill="#000000" fill-opacity="0.200000" stroke="#000000" stroke-opacity="0.200000" points="142.84,-495.45 147.88,-491.57 141.52,-491.46 142.84,-495.45"/>
</g>
<!-- net -->
<g id="node20" class="node">
<title>net</title>
<path fill="#ffffcc" stroke="grey" d="M196,-468C196,-468 154,-468 154,-468 151,-468 148,-465 148,-462 148,-462 148,-456 148,-456 148,-453 151,-450 154,-450 154,-450 196,-450 196,-450 199,-450 202,-453 202,-456 202,-456 202,-462 202,-462 202,-465 199,-468 196,-468"/>
<text text-anchor="middle" x="175" y="-456.8" font-family="Helvetica,sans-Serif" font-size="9.00" fill="grey">net</text>
</g>
<!-- ../cart/dist/server.js&#45;&gt;net -->
<g id="edge14" class="edge">
<title>../cart/dist/server.js&#45;&gt;net</title>
<path fill="none" stroke="#000000" stroke-dasharray="5,2" stroke-opacity="0.200000" d="M81.3,-1231.88C93.61,-1221.93 111.78,-1204.75 119.5,-1185 126.69,-1166.6 115.78,-489.9 127.5,-474 131.12,-469.08 136.39,-465.75 142.08,-463.49"/>
<polygon fill="#000000" fill-opacity="0.200000" stroke="#000000" stroke-opacity="0.200000" points="142.84,-465.45 147.87,-461.57 141.52,-461.46 142.84,-465.45"/>
</g>
<!-- os -->
<g id="node21" class="node">
<title>os</title>
<path fill="#ffffcc" stroke="grey" d="M196,-438C196,-438 154,-438 154,-438 151,-438 148,-435 148,-432 148,-432 148,-426 148,-426 148,-423 151,-420 154,-420 154,-420 196,-420 196,-420 199,-420 202,-423 202,-426 202,-426 202,-432 202,-432 202,-435 199,-438 196,-438"/>
<text text-anchor="middle" x="175" y="-426.8" font-family="Helvetica,sans-Serif" font-size="9.00" fill="grey">os</text>
</g>
<!-- ../cart/dist/server.js&#45;&gt;os -->
<g id="edge15" class="edge">
<title>../cart/dist/server.js&#45;&gt;os</title>
<path fill="none" stroke="#000000" stroke-dasharray="5,2" stroke-opacity="0.200000" d="M81.31,-1231.88C93.61,-1221.93 111.79,-1204.76 119.5,-1185 126.99,-1165.83 115.29,-460.57 127.5,-444 131.12,-439.08 136.38,-435.74 142.08,-433.49"/>
<polygon fill="#000000" fill-opacity="0.200000" stroke="#000000" stroke-opacity="0.200000" points="142.83,-435.45 147.87,-431.57 141.52,-431.46 142.83,-435.45"/>
</g>
<!-- querystring -->
<g id="node22" class="node">
<title>querystring</title>
<path fill="#ffffcc" stroke="grey" d="M199.5,-408C199.5,-408 150.5,-408 150.5,-408 147.5,-408 144.5,-405 144.5,-402 144.5,-402 144.5,-396 144.5,-396 144.5,-393 147.5,-390 150.5,-390 150.5,-390 199.5,-390 199.5,-390 202.5,-390 205.5,-393 205.5,-396 205.5,-396 205.5,-402 205.5,-402 205.5,-405 202.5,-408 199.5,-408"/>
<text text-anchor="middle" x="175" y="-396.8" font-family="Helvetica,sans-Serif" font-size="9.00" fill="grey">querystring</text>
</g>
<!-- ../cart/dist/server.js&#45;&gt;querystring -->
<g id="edge17" class="edge">
<title>../cart/dist/server.js&#45;&gt;querystring</title>
<path fill="none" stroke="#000000" stroke-dasharray="5,2" stroke-opacity="0.200000" d="M81.31,-1231.89C93.61,-1221.93 111.79,-1204.76 119.5,-1185 127.29,-1165.05 114.8,-431.25 127.5,-414 130.4,-410.06 134.35,-407.14 138.73,-404.97"/>
<polygon fill="#000000" fill-opacity="0.200000" stroke="#000000" stroke-opacity="0.200000" points="139.72,-406.83 144.47,-402.61 138.12,-402.95 139.72,-406.83"/>
</g>
<!-- stream -->
<g id="node23" class="node">
<title>stream</title>
<path fill="#ffffcc" stroke="grey" d="M196,-378C196,-378 154,-378 154,-378 151,-378 148,-375 148,-372 148,-372 148,-366 148,-366 148,-363 151,-360 154,-360 154,-360 196,-360 196,-360 199,-360 202,-363 202,-366 202,-366 202,-372 202,-372 202,-375 199,-378 196,-378"/>
<text text-anchor="middle" x="175" y="-366.8" font-family="Helvetica,sans-Serif" font-size="9.00" fill="grey">stream</text>
</g>
<!-- ../cart/dist/server.js&#45;&gt;stream -->
<g id="edge18" class="edge">
<title>../cart/dist/server.js&#45;&gt;stream</title>
<path fill="none" stroke="#000000" stroke-dasharray="5,2" stroke-opacity="0.200000" d="M81.31,-1231.89C93.62,-1221.94 111.79,-1204.76 119.5,-1185 127.59,-1164.27 114.31,-401.92 127.5,-384 131.12,-379.08 136.38,-375.74 142.08,-373.48"/>
<polygon fill="#000000" fill-opacity="0.200000" stroke="#000000" stroke-opacity="0.200000" points="142.83,-375.45 147.87,-371.57 141.51,-371.46 142.83,-375.45"/>
</g>
<!-- string_decoder -->
<g id="node24" class="node">
<title>string_decoder</title>
<path fill="#ffffcc" stroke="grey" d="M207,-348C207,-348 143,-348 143,-348 140,-348 137,-345 137,-342 137,-342 137,-336 137,-336 137,-333 140,-330 143,-330 143,-330 207,-330 207,-330 210,-330 213,-333 213,-336 213,-336 213,-342 213,-342 213,-345 210,-348 207,-348"/>
<text text-anchor="middle" x="175" y="-336.8" font-family="Helvetica,sans-Serif" font-size="9.00" fill="grey">string_decoder</text>
</g>
<!-- ../cart/dist/server.js&#45;&gt;string_decoder -->
<g id="edge19" class="edge">
<title>../cart/dist/server.js&#45;&gt;string_decoder</title>
<path fill="none" stroke="#000000" stroke-dasharray="5,2" stroke-opacity="0.200000" d="M81.31,-1231.89C93.62,-1221.94 111.8,-1204.76 119.5,-1185 127.88,-1163.49 113.82,-372.6 127.5,-354 128.71,-352.36 130.1,-350.9 131.62,-349.59"/>
<polygon fill="#000000" fill-opacity="0.200000" stroke="#000000" stroke-opacity="0.200000" points="132.86,-351.28 136.57,-346.12 130.45,-347.84 132.86,-351.28"/>
</g>
<!-- tty -->
<g id="node25" class="node">
<title>tty</title>
<path fill="#ffffcc" stroke="grey" d="M196,-318C196,-318 154,-318 154,-318 151,-318 148,-315 148,-312 148,-312 148,-306 148,-306 148,-303 151,-300 154,-300 154,-300 196,-300 196,-300 199,-300 202,-303 202,-306 202,-306 202,-312 202,-312 202,-315 199,-318 196,-318"/>
<text text-anchor="middle" x="175" y="-306.8" font-family="Helvetica,sans-Serif" font-size="9.00" fill="grey">tty</text>
</g>
<!-- ../cart/dist/server.js&#45;&gt;tty -->
<g id="edge20" class="edge">
<title>../cart/dist/server.js&#45;&gt;tty</title>
<path fill="none" stroke="#000000" stroke-dasharray="5,2" stroke-opacity="0.200000" d="M81.31,-1231.89C93.62,-1221.94 111.8,-1204.76 119.5,-1185 128.18,-1162.71 113.33,-343.27 127.5,-324 131.12,-319.08 136.38,-315.74 142.07,-313.48"/>
<polygon fill="#000000" fill-opacity="0.200000" stroke="#000000" stroke-opacity="0.200000" points="142.83,-315.44 147.87,-311.57 141.51,-311.46 142.83,-315.44"/>
</g>
<!-- url -->
<g id="node26" class="node">
<title>url</title>
<path fill="#ffffcc" stroke="grey" d="M196,-288C196,-288 154,-288 154,-288 151,-288 148,-285 148,-282 148,-282 148,-276 148,-276 148,-273 151,-270 154,-270 154,-270 196,-270 196,-270 199,-270 202,-273 202,-276 202,-276 202,-282 202,-282 202,-285 199,-288 196,-288"/>
<text text-anchor="middle" x="175" y="-276.8" font-family="Helvetica,sans-Serif" font-size="9.00" fill="grey">url</text>
</g>
<!-- ../cart/dist/server.js&#45;&gt;url -->
<g id="edge21" class="edge">
<title>../cart/dist/server.js&#45;&gt;url</title>
<path fill="none" stroke="#000000" stroke-dasharray="5,2" stroke-opacity="0.200000" d="M81.31,-1231.89C93.62,-1221.94 111.8,-1204.76 119.5,-1185 128.48,-1161.94 112.84,-313.94 127.5,-294 131.12,-289.08 136.38,-285.74 142.07,-283.48"/>
<polygon fill="#000000" fill-opacity="0.200000" stroke="#000000" stroke-opacity="0.200000" points="142.83,-285.44 147.86,-281.56 141.51,-281.46 142.83,-285.44"/>
</g>
<!-- util -->
<g id="node27" class="node">
<title>util</title>
<path fill="#ffffcc" stroke="grey" d="M196,-258C196,-258 154,-258 154,-258 151,-258 148,-255 148,-252 148,-252 148,-246 148,-246 148,-243 151,-240 154,-240 154,-240 196,-240 196,-240 199,-240 202,-243 202,-246 202,-246 202,-252 202,-252 202,-255 199,-258 196,-258"/>
<text text-anchor="middle" x="175" y="-246.8" font-family="Helvetica,sans-Serif" font-size="9.00" fill="grey">util</text>
</g>
<!-- ../cart/dist/server.js&#45;&gt;util -->
<g id="edge22" class="edge">
<title>../cart/dist/server.js&#45;&gt;util</title>
<path fill="none" stroke="#000000" stroke-dasharray="5,2" stroke-opacity="0.200000" d="M81.31,-1231.89C93.63,-1221.94 111.81,-1204.76 119.5,-1185 128.78,-1161.16 112.35,-284.62 127.5,-264 131.12,-259.08 136.38,-255.74 142.07,-253.48"/>
<polygon fill="#000000" fill-opacity="0.200000" stroke="#000000" stroke-opacity="0.200000" points="142.83,-255.44 147.86,-251.56 141.51,-251.45 142.83,-255.44"/>
</g>
<!-- vm -->
<g id="node28" class="node">
<title>vm</title>
<path fill="#ffffcc" stroke="grey" d="M196,-228C196,-228 154,-228 154,-228 151,-228 148,-225 148,-222 148,-222 148,-216 148,-216 148,-213 151,-210 154,-210 154,-210 196,-210 196,-210 199,-210 202,-213 202,-216 202,-216 202,-222 202,-222 202,-225 199,-228 196,-228"/>
<text text-anchor="middle" x="175" y="-216.8" font-family="Helvetica,sans-Serif" font-size="9.00" fill="grey">vm</text>
</g>
<!-- ../cart/dist/server.js&#45;&gt;vm -->
<g id="edge23" class="edge">
<title>../cart/dist/server.js&#45;&gt;vm</title>
<path fill="none" stroke="#000000" stroke-dasharray="5,2" stroke-opacity="0.200000" d="M81.32,-1231.89C93.63,-1221.94 111.81,-1204.76 119.5,-1185 129.08,-1160.38 111.86,-255.29 127.5,-234 131.12,-229.08 136.38,-225.74 142.07,-223.48"/>
<polygon fill="#000000" fill-opacity="0.200000" stroke="#000000" stroke-opacity="0.200000" points="142.83,-225.44 147.86,-221.56 141.51,-221.45 142.83,-225.44"/>
</g>
<!-- zlib -->
<g id="node29" class="node">
<title>zlib</title>
<path fill="#ffffcc" stroke="grey" d="M196,-198C196,-198 154,-198 154,-198 151,-198 148,-195 148,-192 148,-192 148,-186 148,-186 148,-183 151,-180 154,-180 154,-180 196,-180 196,-180 199,-180 202,-183 202,-186 202,-186 202,-192 202,-192 202,-195 199,-198 196,-198"/>
<text text-anchor="middle" x="175" y="-186.8" font-family="Helvetica,sans-Serif" font-size="9.00" fill="grey">zlib</text>
</g>
<!-- ../cart/dist/server.js&#45;&gt;zlib -->
<g id="edge24" class="edge">
<title>../cart/dist/server.js&#45;&gt;zlib</title>
<path fill="none" stroke="#000000" stroke-dasharray="5,2" stroke-opacity="0.200000" d="M81.32,-1231.89C93.63,-1221.94 111.81,-1204.77 119.5,-1185 129.38,-1159.6 111.37,-225.96 127.5,-204 131.12,-199.08 136.38,-195.74 142.07,-193.48"/>
<polygon fill="#000000" fill-opacity="0.200000" stroke="#000000" stroke-opacity="0.200000" points="142.82,-195.44 147.86,-191.56 141.51,-191.45 142.82,-195.44"/>
</g>
<!-- ../cart/src/client.js -->
<g id="node30" class="node">
<title>../cart/src/client.js</title>
<g id="a_node30"><a xlink:href="../cart/src/client.js" xlink:title="client.js">
<path fill="#ffffcc" stroke="black" d="M89,-1396C89,-1396 47,-1396 47,-1396 44,-1396 41,-1393 41,-1390 41,-1390 41,-1384 41,-1384 41,-1381 44,-1378 47,-1378 47,-1378 89,-1378 89,-1378 92,-1378 95,-1381 95,-1384 95,-1384 95,-1390 95,-1390 95,-1393 92,-1396 89,-1396"/>
<text text-anchor="middle" x="68" y="-1384.8" font-family="Helvetica,sans-Serif" font-size="9.00">client.js</text>
</a>
</g>
</g>
<!-- ../cart/src/components/Header.jsx -->
<g id="node31" class="node">
<title>../cart/src/components/Header.jsx</title>
<g id="a_node31"><a xlink:href="../cart/src/components/Header.jsx" xlink:title="Header.jsx">
<path fill="#ffff77" stroke="black" d="M198.5,-1374C198.5,-1374 151.5,-1374 151.5,-1374 148.5,-1374 145.5,-1371 145.5,-1368 145.5,-1368 145.5,-1362 145.5,-1362 145.5,-1359 148.5,-1356 151.5,-1356 151.5,-1356 198.5,-1356 198.5,-1356 201.5,-1356 204.5,-1359 204.5,-1362 204.5,-1362 204.5,-1368 204.5,-1368 204.5,-1371 201.5,-1374 198.5,-1374"/>
<text text-anchor="middle" x="175" y="-1362.8" font-family="Helvetica,sans-Serif" font-size="9.00">Header.jsx</text>
</a>
</g>
</g>
<!-- ../cart/src/client.js&#45;&gt;../cart/src/components/Header.jsx -->
<g id="edge25" class="edge">
<title>../cart/src/client.js&#45;&gt;../cart/src/components/Header.jsx</title>
<path fill="none" stroke="#000000" stroke-width="2" stroke-opacity="0.200000" d="M95.23,-1381.51C108.51,-1378.72 124.83,-1375.3 139.15,-1372.3"/>
<polygon fill="#000000" fill-opacity="0.200000" stroke="#000000" stroke-width="2" stroke-opacity="0.200000" points="139.72,-1374.33 145.16,-1371.04 138.85,-1370.22 139.72,-1374.33"/>
</g>
<!-- ../cart/src/components/NavBar.jsx -->
<g id="node32" class="node">
<title>../cart/src/components/NavBar.jsx</title>
<g id="a_node32"><a xlink:href="../cart/src/components/NavBar.jsx" xlink:title="NavBar.jsx">
<path fill="#ffff77" stroke="black" d="M300.5,-1374C300.5,-1374 252.5,-1374 252.5,-1374 249.5,-1374 246.5,-1371 246.5,-1368 246.5,-1368 246.5,-1362 246.5,-1362 246.5,-1359 249.5,-1356 252.5,-1356 252.5,-1356 300.5,-1356 300.5,-1356 303.5,-1356 306.5,-1359 306.5,-1362 306.5,-1362 306.5,-1368 306.5,-1368 306.5,-1371 303.5,-1374 300.5,-1374"/>
<text text-anchor="middle" x="276.5" y="-1362.8" font-family="Helvetica,sans-Serif" font-size="9.00">NavBar.jsx</text>
</a>
</g>
</g>
<!-- ../cart/src/components/Header.jsx&#45;&gt;../cart/src/components/NavBar.jsx -->
<g id="edge26" class="edge">
<title>../cart/src/components/Header.jsx&#45;&gt;../cart/src/components/NavBar.jsx</title>
<path fill="none" stroke="#000000" stroke-width="2" stroke-opacity="0.200000" d="M204.51,-1365C215.66,-1365 228.56,-1365 240.29,-1365"/>
<polygon fill="#000000" fill-opacity="0.200000" stroke="#000000" stroke-width="2" stroke-opacity="0.200000" points="240.29,-1367.1 246.29,-1365 240.29,-1362.9 240.29,-1367.1"/>
</g>
<!-- ../cart/src/index.js -->
<g id="node33" class="node">
<title>../cart/src/index.js</title>
<g id="a_node33"><a xlink:href="../cart/src/index.js" xlink:title="index.js">
<path fill="#ffffcc" stroke="black" d="M89,-1366C89,-1366 47,-1366 47,-1366 44,-1366 41,-1363 41,-1360 41,-1360 41,-1354 41,-1354 41,-1351 44,-1348 47,-1348 47,-1348 89,-1348 89,-1348 92,-1348 95,-1351 95,-1354 95,-1354 95,-1360 95,-1360 95,-1363 92,-1366 89,-1366"/>
<text text-anchor="middle" x="68" y="-1354.8" font-family="Helvetica,sans-Serif" font-size="9.00">index.js</text>
</a>
</g>
</g>
<!-- ../cart/src/index.js&#45;&gt;path -->
<g id="edge28" class="edge">
<title>../cart/src/index.js&#45;&gt;path</title>
<path fill="none" stroke="#000000" stroke-dasharray="5,2" stroke-opacity="0.200000" d="M95.12,-1356.53C104.27,-1354.94 113.69,-1351.41 119.5,-1344 131.72,-1328.41 116.81,-647.67 127.5,-631 131.04,-625.47 136.38,-621.31 142.2,-618.18"/>
<polygon fill="#000000" fill-opacity="0.200000" stroke="#000000" stroke-opacity="0.200000" points="143.13,-620.06 147.64,-615.58 141.32,-616.27 143.13,-620.06"/>
</g>
<!-- ../cart/src/index.js&#45;&gt;../cart/src/components/Header.jsx -->
<g id="edge27" class="edge">
<title>../cart/src/index.js&#45;&gt;../cart/src/components/Header.jsx</title>
<path fill="none" stroke="#000000" stroke-width="2" stroke-opacity="0.200000" d="M95.23,-1359C108.51,-1360.01 124.83,-1361.25 139.15,-1362.35"/>
<polygon fill="#000000" fill-opacity="0.200000" stroke="#000000" stroke-width="2" stroke-opacity="0.200000" points="139.02,-1364.44 145.16,-1362.8 139.33,-1360.25 139.02,-1364.44"/>
</g>
<!-- ../cart/webpack.config.js -->
<g id="node34" class="node">
<title>../cart/webpack.config.js</title>
<g id="a_node34"><a xlink:href="../cart/webpack.config.js" xlink:title="webpack.config.js">
<path fill="#ffffcc" stroke="black" d="M106,-1332C106,-1332 30,-1332 30,-1332 27,-1332 24,-1329 24,-1326 24,-1326 24,-1320 24,-1320 24,-1317 27,-1314 30,-1314 30,-1314 106,-1314 106,-1314 109,-1314 112,-1317 112,-1320 112,-1320 112,-1326 112,-1326 112,-1329 109,-1332 106,-1332"/>
<text text-anchor="middle" x="68" y="-1320.8" font-family="Helvetica,sans-Serif" font-size="9.00">webpack.config.js</text>
</a>
</g>
</g>
<!-- ../cart/webpack.config.js&#45;&gt;path -->
<g id="edge29" class="edge">
<title>../cart/webpack.config.js&#45;&gt;path</title>
<path fill="none" stroke="#000000" stroke-dasharray="5,2" stroke-opacity="0.200000" d="M112.36,-1315.5C115.07,-1313.74 117.5,-1311.6 119.5,-1309 130.99,-1294.08 117.33,-646.85 127.5,-631 131.04,-625.47 136.39,-621.31 142.2,-618.18"/>
<polygon fill="#000000" fill-opacity="0.200000" stroke="#000000" stroke-opacity="0.200000" points="143.13,-620.06 147.64,-615.58 141.32,-616.27 143.13,-620.06"/>
</g>
<!-- ../product&#45;list/dist/client.js -->
<g id="node35" class="node">
<title>../product&#45;list/dist/client.js</title>
<g id="a_node35"><a xlink:href="../product-list/dist/client.js" xlink:title="client.js">
<path fill="#ccffcc" stroke="black" d="M89,-1036C89,-1036 47,-1036 47,-1036 44,-1036 41,-1033 41,-1030 41,-1030 41,-1024 41,-1024 41,-1021 44,-1018 47,-1018 47,-1018 89,-1018 89,-1018 92,-1018 95,-1021 95,-1024 95,-1024 95,-1030 95,-1030 95,-1033 92,-1036 89,-1036"/>
<text text-anchor="middle" x="68" y="-1024.8" font-family="Helvetica,sans-Serif" font-size="9.00">client.js</text>
</a>
</g>
</g>
<!-- ../product&#45;list/dist/server.js -->
<g id="node36" class="node">
<title>../product&#45;list/dist/server.js</title>
<g id="a_node36"><a xlink:href="../product-list/dist/server.js" xlink:title="server.js">
<path fill="#ffffcc" stroke="black" d="M89,-1006C89,-1006 47,-1006 47,-1006 44,-1006 41,-1003 41,-1000 41,-1000 41,-994 41,-994 41,-991 44,-988 47,-988 47,-988 89,-988 89,-988 92,-988 95,-991 95,-994 95,-994 95,-1000 95,-1000 95,-1003 92,-1006 89,-1006"/>
<text text-anchor="middle" x="68" y="-994.8" font-family="Helvetica,sans-Serif" font-size="9.00">server.js</text>
</a>
</g>
</g>
<!-- ../product&#45;list/dist/server.js&#45;&gt;path -->
<g id="edge42" class="edge">
<title>../product&#45;list/dist/server.js&#45;&gt;path</title>
<path fill="none" stroke="#000000" stroke-dasharray="5,2" stroke-opacity="0.200000" d="M77.04,-987.72C88.94,-973.3 110.8,-944.16 119.5,-915 128.53,-884.75 110.24,-657.43 127.5,-631 131.09,-625.5 136.45,-621.35 142.27,-618.22"/>
<polygon fill="#000000" fill-opacity="0.200000" stroke="#000000" stroke-opacity="0.200000" points="143.2,-620.11 147.71,-615.63 141.39,-616.32 143.2,-620.11"/>
</g>
<!-- ../product&#45;list/dist/server.js&#45;&gt;assert -->
<g id="edge30" class="edge">
<title>../product&#45;list/dist/server.js&#45;&gt;assert</title>
<path fill="none" stroke="#000000" stroke-dasharray="5,2" stroke-opacity="0.200000" d="M77.1,-987.73C89.09,-973.35 111.05,-944.23 119.5,-915 125.22,-895.23 115.29,-190.57 127.5,-174 131.12,-169.08 136.38,-165.74 142.08,-163.49"/>
<polygon fill="#000000" fill-opacity="0.200000" stroke="#000000" stroke-opacity="0.200000" points="142.83,-165.45 147.87,-161.57 141.52,-161.46 142.83,-165.45"/>
</g>
<!-- ../product&#45;list/dist/server.js&#45;&gt;async_hooks -->
<g id="edge31" class="edge">
<title>../product&#45;list/dist/server.js&#45;&gt;async_hooks</title>
<path fill="none" stroke="#000000" stroke-dasharray="5,2" stroke-opacity="0.200000" d="M77.1,-987.73C89.09,-973.35 111.06,-944.23 119.5,-915 125.44,-894.42 114.8,-161.25 127.5,-144 129.51,-141.27 132.03,-139.02 134.85,-137.18"/>
<polygon fill="#000000" fill-opacity="0.200000" stroke="#000000" stroke-opacity="0.200000" points="135.92,-138.99 140.2,-134.28 133.92,-135.29 135.92,-138.99"/>
</g>
<!-- ../product&#45;list/dist/server.js&#45;&gt;buffer -->
<g id="edge32" class="edge">
<title>../product&#45;list/dist/server.js&#45;&gt;buffer</title>
<path fill="none" stroke="#000000" stroke-dasharray="5,2" stroke-opacity="0.200000" d="M77.1,-987.73C89.1,-973.35 111.06,-944.24 119.5,-915 125.67,-893.62 114.31,-131.92 127.5,-114 131.12,-109.08 136.38,-105.74 142.08,-103.48"/>
<polygon fill="#000000" fill-opacity="0.200000" stroke="#000000" stroke-opacity="0.200000" points="142.83,-105.45 147.87,-101.57 141.51,-101.46 142.83,-105.45"/>
</g>
<!-- ../product&#45;list/dist/server.js&#45;&gt;cluster -->
<g id="edge33" class="edge">
<title>../product&#45;list/dist/server.js&#45;&gt;cluster</title>
<path fill="none" stroke="#000000" stroke-dasharray="5,2" stroke-opacity="0.200000" d="M77.11,-987.73C89.1,-973.35 111.07,-944.24 119.5,-915 125.9,-892.82 113.82,-102.6 127.5,-84 131.12,-79.08 136.38,-75.74 142.07,-73.48"/>
<polygon fill="#000000" fill-opacity="0.200000" stroke="#000000" stroke-opacity="0.200000" points="142.83,-75.44 147.87,-71.57 141.51,-71.46 142.83,-75.44"/>
</g>
<!-- ../product&#45;list/dist/server.js&#45;&gt;crypto -->
<g id="edge34" class="edge">
<title>../product&#45;list/dist/server.js&#45;&gt;crypto</title>
<path fill="none" stroke="#000000" stroke-dasharray="5,2" stroke-opacity="0.200000" d="M77.11,-987.74C89.1,-973.35 111.07,-944.24 119.5,-915 126.12,-892.02 113.33,-73.27 127.5,-54 131.12,-49.08 136.38,-45.74 142.07,-43.48"/>
<polygon fill="#000000" fill-opacity="0.200000" stroke="#000000" stroke-opacity="0.200000" points="142.83,-45.44 147.87,-41.57 141.51,-41.46 142.83,-45.44"/>
</g>
<!-- ../product&#45;list/dist/server.js&#45;&gt;events -->
<g id="edge35" class="edge">
<title>../product&#45;list/dist/server.js&#45;&gt;events</title>
<path fill="none" stroke="#000000" stroke-dasharray="5,2" stroke-opacity="0.200000" d="M77.11,-987.74C89.11,-973.35 111.08,-944.24 119.5,-915 126.35,-891.22 112.84,-43.94 127.5,-24 131.12,-19.08 136.38,-15.74 142.07,-13.48"/>
<polygon fill="#000000" fill-opacity="0.200000" stroke="#000000" stroke-opacity="0.200000" points="142.83,-15.44 147.86,-11.56 141.51,-11.46 142.83,-15.44"/>
</g>
<!-- ../product&#45;list/dist/server.js&#45;&gt;fs -->
<g id="edge36" class="edge">
<title>../product&#45;list/dist/server.js&#45;&gt;fs</title>
<path fill="none" stroke="#000000" stroke-dasharray="5,2" stroke-opacity="0.200000" d="M77.05,-987.72C88.97,-973.31 110.84,-944.17 119.5,-915 124.57,-897.9 116.82,-608.29 127.5,-594 131.16,-589.11 136.43,-585.78 142.13,-583.53"/>
<polygon fill="#000000" fill-opacity="0.200000" stroke="#000000" stroke-opacity="0.200000" points="142.89,-585.49 147.93,-581.61 141.57,-581.5 142.89,-585.49"/>
</g>
<!-- ../product&#45;list/dist/server.js&#45;&gt;http -->
<g id="edge37" class="edge">
<title>../product&#45;list/dist/server.js&#45;&gt;http</title>
<path fill="none" stroke="#000000" stroke-dasharray="5,2" stroke-opacity="0.200000" d="M77.06,-987.72C88.99,-973.32 110.87,-944.18 119.5,-915 125.03,-896.29 115.84,-579.64 127.5,-564 131.15,-559.1 136.43,-555.78 142.12,-553.52"/>
<polygon fill="#000000" fill-opacity="0.200000" stroke="#000000" stroke-opacity="0.200000" points="142.88,-555.48 147.92,-551.6 141.56,-551.49 142.88,-555.48"/>
</g>
<!-- ../product&#45;list/dist/server.js&#45;&gt;https -->
<g id="edge38" class="edge">
<title>../product&#45;list/dist/server.js&#45;&gt;https</title>
<path fill="none" stroke="#000000" stroke-dasharray="5,2" stroke-opacity="0.200000" d="M77.06,-987.72C89,-973.32 110.9,-944.19 119.5,-915 125.48,-894.69 114.86,-550.98 127.5,-534 131.15,-529.1 136.42,-525.77 142.12,-523.52"/>
<polygon fill="#000000" fill-opacity="0.200000" stroke="#000000" stroke-opacity="0.200000" points="142.87,-525.48 147.91,-521.6 141.55,-521.49 142.87,-525.48"/>
</g>
<!-- ../product&#45;list/dist/server.js&#45;&gt;module -->
<g id="edge39" class="edge">
<title>../product&#45;list/dist/server.js&#45;&gt;module</title>
<path fill="none" stroke="#000000" stroke-dasharray="5,2" stroke-opacity="0.200000" d="M77.07,-987.72C89.02,-973.32 110.92,-944.2 119.5,-915 125.94,-893.09 113.88,-522.33 127.5,-504 131.14,-499.1 136.41,-495.77 142.11,-493.51"/>
<polygon fill="#000000" fill-opacity="0.200000" stroke="#000000" stroke-opacity="0.200000" points="142.87,-495.47 147.91,-491.59 141.55,-491.48 142.87,-495.47"/>
</g>
<!-- ../product&#45;list/dist/server.js&#45;&gt;net -->
<g id="edge40" class="edge">
<title>../product&#45;list/dist/server.js&#45;&gt;net</title>
<path fill="none" stroke="#000000" stroke-dasharray="5,2" stroke-opacity="0.200000" d="M77.07,-987.73C89.03,-973.33 110.94,-944.2 119.5,-915 126.39,-891.48 112.9,-493.68 127.5,-474 131.14,-469.1 136.41,-465.76 142.11,-463.51"/>
<polygon fill="#000000" fill-opacity="0.200000" stroke="#000000" stroke-opacity="0.200000" points="142.86,-465.47 147.9,-461.59 141.54,-461.48 142.86,-465.47"/>
</g>
<!-- ../product&#45;list/dist/server.js&#45;&gt;os -->
<g id="edge41" class="edge">
<title>../product&#45;list/dist/server.js&#45;&gt;os</title>
<path fill="none" stroke="#000000" stroke-dasharray="5,2" stroke-opacity="0.200000" d="M77.08,-987.73C89.04,-973.33 110.96,-944.21 119.5,-915 126.85,-889.88 111.92,-465.02 127.5,-444 131.14,-439.09 136.41,-435.76 142.1,-433.5"/>
<polygon fill="#000000" fill-opacity="0.200000" stroke="#000000" stroke-opacity="0.200000" points="142.86,-435.47 147.9,-431.59 141.54,-431.48 142.86,-435.47"/>
</g>
<!-- ../product&#45;list/dist/server.js&#45;&gt;querystring -->
<g id="edge43" class="edge">
<title>../product&#45;list/dist/server.js&#45;&gt;querystring</title>
<path fill="none" stroke="#000000" stroke-dasharray="5,2" stroke-opacity="0.200000" d="M77.08,-987.73C89.05,-973.33 110.97,-944.21 119.5,-915 127.3,-888.28 110.93,-436.37 127.5,-414 130.41,-410.07 134.37,-407.15 138.75,-404.98"/>
<polygon fill="#000000" fill-opacity="0.200000" stroke="#000000" stroke-opacity="0.200000" points="139.74,-406.85 144.49,-402.62 138.15,-402.96 139.74,-406.85"/>
</g>
<!-- ../product&#45;list/dist/server.js&#45;&gt;stream -->
<g id="edge44" class="edge">
<title>../product&#45;list/dist/server.js&#45;&gt;stream</title>
<path fill="none" stroke="#000000" stroke-dasharray="5,2" stroke-opacity="0.200000" d="M77.09,-987.73C89.05,-973.33 110.99,-944.21 119.5,-915 123.63,-900.84 118.73,-395.86 127.5,-384 131.13,-379.09 136.4,-375.76 142.09,-373.5"/>
<polygon fill="#000000" fill-opacity="0.200000" stroke="#000000" stroke-opacity="0.200000" points="142.85,-375.46 147.89,-371.58 141.53,-371.47 142.85,-375.46"/>
</g>
<!-- ../product&#45;list/dist/server.js&#45;&gt;string_decoder -->
<g id="edge45" class="edge">
<title>../product&#45;list/dist/server.js&#45;&gt;string_decoder</title>
<path fill="none" stroke="#000000" stroke-dasharray="5,2" stroke-opacity="0.200000" d="M77.09,-987.73C89.06,-973.34 111,-944.22 119.5,-915 123.85,-900.04 118.24,-366.53 127.5,-354 128.71,-352.36 130.1,-350.9 131.63,-349.6"/>
<polygon fill="#000000" fill-opacity="0.200000" stroke="#000000" stroke-opacity="0.200000" points="132.87,-351.29 136.58,-346.13 130.46,-347.85 132.87,-351.29"/>
</g>
<!-- ../product&#45;list/dist/server.js&#45;&gt;tty -->
<g id="edge46" class="edge">
<title>../product&#45;list/dist/server.js&#45;&gt;tty</title>
<path fill="none" stroke="#000000" stroke-dasharray="5,2" stroke-opacity="0.200000" d="M77.09,-987.73C89.07,-973.34 111.01,-944.22 119.5,-915 124.08,-899.23 117.75,-337.21 127.5,-324 131.13,-319.09 136.39,-315.75 142.09,-313.49"/>
<polygon fill="#000000" fill-opacity="0.200000" stroke="#000000" stroke-opacity="0.200000" points="142.85,-315.46 147.88,-311.58 141.53,-311.47 142.85,-315.46"/>
</g>
<!-- ../product&#45;list/dist/server.js&#45;&gt;url -->
<g id="edge47" class="edge">
<title>../product&#45;list/dist/server.js&#45;&gt;url</title>
<path fill="none" stroke="#000000" stroke-dasharray="5,2" stroke-opacity="0.200000" d="M77.09,-987.73C89.07,-973.34 111.02,-944.22 119.5,-915 124.31,-898.43 117.26,-307.88 127.5,-294 131.13,-289.09 136.39,-285.75 142.09,-283.49"/>
<polygon fill="#000000" fill-opacity="0.200000" stroke="#000000" stroke-opacity="0.200000" points="142.84,-285.45 147.88,-281.58 141.52,-281.47 142.84,-285.45"/>
</g>
<!-- ../product&#45;list/dist/server.js&#45;&gt;util -->
<g id="edge48" class="edge">
<title>../product&#45;list/dist/server.js&#45;&gt;util</title>
<path fill="none" stroke="#000000" stroke-dasharray="5,2" stroke-opacity="0.200000" d="M77.1,-987.73C89.08,-973.34 111.03,-944.23 119.5,-915 124.54,-897.63 116.76,-278.55 127.5,-264 131.13,-259.08 136.39,-255.75 142.08,-253.49"/>
<polygon fill="#000000" fill-opacity="0.200000" stroke="#000000" stroke-opacity="0.200000" points="142.84,-255.45 147.88,-251.57 141.52,-251.46 142.84,-255.45"/>
</g>
<!-- ../product&#45;list/dist/server.js&#45;&gt;vm -->
<g id="edge49" class="edge">
<title>../product&#45;list/dist/server.js&#45;&gt;vm</title>
<path fill="none" stroke="#000000" stroke-dasharray="5,2" stroke-opacity="0.200000" d="M77.1,-987.73C89.08,-973.34 111.04,-944.23 119.5,-915 124.76,-896.83 116.27,-249.23 127.5,-234 131.12,-229.08 136.39,-225.75 142.08,-223.49"/>
<polygon fill="#000000" fill-opacity="0.200000" stroke="#000000" stroke-opacity="0.200000" points="142.84,-225.45 147.88,-221.57 141.52,-221.46 142.84,-225.45"/>
</g>
<!-- ../product&#45;list/dist/server.js&#45;&gt;zlib -->
<g id="edge50" class="edge">
<title>../product&#45;list/dist/server.js&#45;&gt;zlib</title>
<path fill="none" stroke="#000000" stroke-dasharray="5,2" stroke-opacity="0.200000" d="M77.1,-987.73C89.09,-973.34 111.04,-944.23 119.5,-915 124.99,-896.03 115.78,-219.9 127.5,-204 131.12,-199.08 136.39,-195.75 142.08,-193.49"/>
<polygon fill="#000000" fill-opacity="0.200000" stroke="#000000" stroke-opacity="0.200000" points="142.84,-195.45 147.87,-191.57 141.52,-191.46 142.84,-195.45"/>
</g>
<!-- ../product&#45;list/src/client.js -->
<g id="node37" class="node">
<title>../product&#45;list/src/client.js</title>
<g id="a_node37"><a xlink:href="../product-list/src/client.js" xlink:title="client.js">
<path fill="#ffffcc" stroke="black" d="M89,-1152C89,-1152 47,-1152 47,-1152 44,-1152 41,-1149 41,-1146 41,-1146 41,-1140 41,-1140 41,-1137 44,-1134 47,-1134 47,-1134 89,-1134 89,-1134 92,-1134 95,-1137 95,-1140 95,-1140 95,-1146 95,-1146 95,-1149 92,-1152 89,-1152"/>
<text text-anchor="middle" x="68" y="-1140.8" font-family="Helvetica,sans-Serif" font-size="9.00">client.js</text>
</a>
</g>
</g>
<!-- ../product&#45;list/src/components/ProductList.vue -->
<g id="node38" class="node">
<title>../product&#45;list/src/components/ProductList.vue</title>
<g id="a_node38"><a xlink:href="../product-list/src/components/ProductList.vue" xlink:title="ProductList.vue">
<path fill="#41f083" stroke="black" d="M208.5,-1130C208.5,-1130 141.5,-1130 141.5,-1130 138.5,-1130 135.5,-1127 135.5,-1124 135.5,-1124 135.5,-1118 135.5,-1118 135.5,-1115 138.5,-1112 141.5,-1112 141.5,-1112 208.5,-1112 208.5,-1112 211.5,-1112 214.5,-1115 214.5,-1118 214.5,-1118 214.5,-1124 214.5,-1124 214.5,-1127 211.5,-1130 208.5,-1130"/>
<text text-anchor="middle" x="175" y="-1118.8" font-family="Helvetica,sans-Serif" font-size="9.00">ProductList.vue</text>
</a>
</g>
</g>
<!-- ../product&#45;list/src/client.js&#45;&gt;../product&#45;list/src/components/ProductList.vue -->
<g id="edge51" class="edge">
<title>../product&#45;list/src/client.js&#45;&gt;../product&#45;list/src/components/ProductList.vue</title>
<path fill="none" stroke="#000000" stroke-width="2" stroke-opacity="0.200000" d="M95.23,-1137.51C105.57,-1135.34 117.75,-1132.79 129.4,-1130.35"/>
<polygon fill="#000000" fill-opacity="0.200000" stroke="#000000" stroke-width="2" stroke-opacity="0.200000" points="129.99,-1132.37 135.43,-1129.08 129.13,-1128.26 129.99,-1132.37"/>
</g>
<!-- ../product&#45;list/src/index.js -->
<g id="node39" class="node">
<title>../product&#45;list/src/index.js</title>
<g id="a_node39"><a xlink:href="../product-list/src/index.js" xlink:title="index.js">
<path fill="#ffffcc" stroke="black" d="M89,-1122C89,-1122 47,-1122 47,-1122 44,-1122 41,-1119 41,-1116 41,-1116 41,-1110 41,-1110 41,-1107 44,-1104 47,-1104 47,-1104 89,-1104 89,-1104 92,-1104 95,-1107 95,-1110 95,-1110 95,-1116 95,-1116 95,-1119 92,-1122 89,-1122"/>
<text text-anchor="middle" x="68" y="-1110.8" font-family="Helvetica,sans-Serif" font-size="9.00">index.js</text>
</a>
</g>
</g>
<!-- ../product&#45;list/src/index.js&#45;&gt;path -->
<g id="edge53" class="edge">
<title>../product&#45;list/src/index.js&#45;&gt;path</title>
<path fill="none" stroke="#000000" stroke-dasharray="5,2" stroke-opacity="0.200000" d="M95.1,-1112.51C104.24,-1110.92 113.67,-1107.39 119.5,-1100 135.64,-1079.54 113.37,-652.9 127.5,-631 131.06,-625.48 136.41,-621.32 142.22,-618.19"/>
<polygon fill="#000000" fill-opacity="0.200000" stroke="#000000" stroke-opacity="0.200000" points="143.15,-620.08 147.66,-615.6 141.34,-616.29 143.15,-620.08"/>
</g>
<!-- ../product&#45;list/src/index.js&#45;&gt;../product&#45;list/src/components/ProductList.vue -->
<g id="edge52" class="edge">
<title>../product&#45;list/src/index.js&#45;&gt;../product&#45;list/src/components/ProductList.vue</title>
<path fill="none" stroke="#000000" stroke-width="2" stroke-opacity="0.200000" d="M95.23,-1115C105.57,-1115.79 117.75,-1116.71 129.4,-1117.6"/>
<polygon fill="#000000" fill-opacity="0.200000" stroke="#000000" stroke-width="2" stroke-opacity="0.200000" points="129.29,-1119.7 135.43,-1118.06 129.61,-1115.51 129.29,-1119.7"/>
</g>
<!-- ../product&#45;list/webpack.config.js -->
<g id="node40" class="node">
<title>../product&#45;list/webpack.config.js</title>
<g id="a_node40"><a xlink:href="../product-list/webpack.config.js" xlink:title="webpack.config.js">
<path fill="#ffffcc" stroke="black" d="M106,-1088C106,-1088 30,-1088 30,-1088 27,-1088 24,-1085 24,-1082 24,-1082 24,-1076 24,-1076 24,-1073 27,-1070 30,-1070 30,-1070 106,-1070 106,-1070 109,-1070 112,-1073 112,-1076 112,-1076 112,-1082 112,-1082 112,-1085 109,-1088 106,-1088"/>
<text text-anchor="middle" x="68" y="-1076.8" font-family="Helvetica,sans-Serif" font-size="9.00">webpack.config.js</text>
</a>
</g>
</g>
<!-- ../product&#45;list/webpack.config.js&#45;&gt;path -->
<g id="edge54" class="edge">
<title>../product&#45;list/webpack.config.js&#45;&gt;path</title>
<path fill="none" stroke="#000000" stroke-dasharray="5,2" stroke-opacity="0.200000" d="M112.34,-1071.49C115.05,-1069.73 117.49,-1067.59 119.5,-1065 134.27,-1045.94 114.41,-651.25 127.5,-631 131.06,-625.49 136.41,-621.33 142.23,-618.19"/>
<polygon fill="#000000" fill-opacity="0.200000" stroke="#000000" stroke-opacity="0.200000" points="143.16,-620.08 147.67,-615.6 141.35,-616.29 143.16,-620.08"/>
</g>
</g>
</svg>
